<svg width="240" height="79" viewBox="0 0 240 79" fill="none" xmlns="http://www.w3.org/2000/svg">
<g clip-path="url(#clip0_793_14)">
<path d="M220.201 73.2725L196.47 48.9719C195.155 49.7897 194.669 50.791 194.702 52.2867C194.804 57.186 194.74 62.0882 194.74 67.1373C194.227 67.167 193.77 67.2178 193.311 67.2178C183.019 67.2178 172.726 67.2616 162.435 67.2108C150.062 67.1505 140.656 61.8435 134.219 51.2896C134.077 51.0679 133.948 50.8461 133.627 50.3207V66.256H74.1351V46.0597H64.7845V66.3549H63.3805C52.8879 66.3549 42.3953 66.2786 31.9042 66.3732C18.5866 66.4933 6.57102 58.4374 2.11955 46.0555C-2.23134 33.9533 0.123326 22.9216 8.92002 13.4307C13.6648 8.31667 19.6676 5.37055 26.5304 4.21385C28.3722 3.90314 30.2763 3.87208 32.1521 3.86501C41.2827 3.83112 50.4133 3.83112 59.5439 3.86501C60.4152 3.86501 61.0584 3.65174 61.6534 3.00913C62.5616 2.03039 63.5533 1.12934 64.7236 -0.0146484V25.1968H74.094V6.43544H97.0201V17.5166C97.5869 16.9954 97.9085 16.7285 98.2017 16.439C101.895 12.7867 105.597 9.14286 109.268 5.46799C109.876 4.85786 110.494 4.61214 111.369 4.61214C137.079 4.63662 162.789 4.65213 188.499 4.65872C189.633 4.65872 190.444 4.35085 191.212 3.53876C192.245 2.4442 193.397 1.46123 194.681 0.257921V17.7355C195.205 17.2398 195.507 16.9686 195.794 16.6819C199.359 13.1257 202.911 9.55812 206.499 6.0273C206.855 5.67845 207.431 5.35503 207.908 5.35361C218.44 5.31548 228.972 5.32534 239.501 5.32675C239.688 5.32675 239.877 5.355 239.987 5.36489L212.659 32.9618C214.884 35.2696 217.075 37.5858 219.318 39.8497C219.617 40.1319 219.851 40.4748 220.005 40.8552C220.159 41.2356 220.229 41.6446 220.211 42.0544C220.18 51.9407 220.191 61.827 220.191 71.7132L220.201 73.2725ZM78.6844 11.0806V29.8942H60.0383V11.1766C59.7082 11.4181 59.5779 11.4902 59.4716 11.5904C55.312 15.6226 51.1425 19.6407 47.0197 23.7125C46.6867 24.0415 46.5422 24.7011 46.5408 25.2024C46.5153 36.9606 46.5096 48.7182 46.5238 60.4753C46.5238 60.899 46.5621 61.3114 46.5819 61.7125H60.0624V41.4852H78.7821V61.7013H92.3151V11.0806H78.6844ZM228.922 9.9013H227.799C221.952 9.9013 216.105 9.87871 210.258 9.93661C209.571 9.97246 208.919 10.2479 208.416 10.7148C202.643 16.414 196.902 22.1438 191.193 27.9042C190.901 28.1966 190.792 28.6683 190.599 29.0567L189.983 28.6429V11.13C189.456 11.6017 189.152 11.8602 188.863 12.1342C184.718 16.0675 180.585 20.0136 176.418 23.9243C175.814 24.4892 175.578 25.0711 175.58 25.9016C175.604 37.6616 175.61 49.422 175.597 61.1829V62.454H190.048C190.048 58.1351 190.038 53.9123 190.062 49.688C190.062 49.2417 190.126 48.6612 190.401 48.3731C192.354 46.3323 194.367 44.3522 196.43 42.2874L215.491 61.8156V60.2084C215.491 55.8627 215.269 51.5014 215.564 47.1769C215.792 43.8311 214.845 41.3553 212.305 39.1732C210.074 37.2595 208.163 34.9758 206.224 32.9745L228.922 9.9013ZM110.982 24.0359H112.344C117.549 24.0359 122.756 24.0599 127.961 24.002C128.608 23.9682 129.221 23.7053 129.691 23.2605C133.839 19.0475 137.936 14.7865 142.042 10.5298C142.245 10.3208 142.403 10.0708 142.682 9.71062C142.27 9.68944 142.042 9.66825 141.814 9.66825C132.038 9.66825 122.273 9.65698 112.503 9.69794C111.988 9.69794 111.361 10.0228 110.981 10.3928C106.605 14.6608 102.26 18.9586 97.9467 23.2859C97.4819 23.7929 97.2132 24.4482 97.1887 25.1347C97.1434 36.8937 97.1547 48.6542 97.1576 60.4132C97.1576 60.8369 97.1944 61.2606 97.2142 61.7041H128.844V47.8322H111.016V41.3496H128.856V29.9394H110.988L110.982 24.0359ZM40.6966 47.8816C38.0473 47.8816 35.5269 47.8986 33.0093 47.8731C31.9311 47.8633 30.8501 47.8096 29.779 47.6966C23.687 47.0526 18.8062 41.577 18.6759 35.2583C18.5484 29.1273 23.3427 23.2916 29.3696 22.6137C32.5743 22.2521 35.8414 22.4498 39.0759 22.3128C39.7229 22.276 40.3398 22.0278 40.8312 21.6067C45.2119 17.518 49.5443 13.3784 53.8867 9.25021C54.0992 9.04824 54.2763 8.81239 54.5951 8.4466H53.3271C46.1214 8.4466 38.9144 8.41551 31.7087 8.46777C29.9501 8.47239 28.1956 8.63598 26.4667 8.95646C12.2098 11.6992 2.93987 24.9864 5.00126 38.9585C6.02558 45.8959 9.37481 51.6215 14.9186 55.9912C18.989 59.2014 23.6119 61.2168 28.8256 61.5402C32.614 61.7747 36.4209 61.7069 40.2192 61.7676C40.3809 61.7488 40.5401 61.7124 40.6938 61.6589L40.6966 47.8816ZM168.167 48.6443C165.936 48.6443 163.856 48.6697 161.778 48.633C160.859 48.6282 159.943 48.545 159.039 48.3844C153.193 47.2659 148.263 41.7733 148.838 34.6439C149.303 28.8675 154.449 23.6277 160.382 23.2874C162.856 23.1461 165.341 23.2619 167.822 23.1645C168.434 23.1405 169.177 22.8933 169.612 22.4865C173.958 18.4204 178.255 14.295 182.557 10.1993C182.802 9.96625 183.019 9.70215 183.369 9.32082C183.009 9.28834 182.821 9.25445 182.634 9.25445C175.509 9.25445 168.384 9.21771 161.261 9.27703C157.129 9.31093 153.165 10.2318 149.501 12.1653C138.414 18.0222 133.087 29.1471 135.406 41.4809C137.225 51.1554 145.724 59.7296 155.405 61.8623C159.372 62.7365 163.36 62.4639 167.348 62.5416C167.622 62.5294 167.896 62.4996 168.166 62.4526L168.167 48.6443ZM41.8669 27.0187C38.2485 27.0187 34.7675 26.9311 31.2922 27.0399C26.6494 27.1811 23.3115 30.7798 23.3951 35.3642C23.4745 39.7198 27.0206 43.132 31.5642 43.18C34.6811 43.2125 37.8079 43.1885 40.929 43.18C41.2336 43.18 41.5382 43.1235 41.8669 43.091V27.0187ZM170.897 43.8381V27.8294C167.504 27.8294 164.182 27.7178 160.872 27.859C157.003 28.0243 153.701 31.4577 153.433 35.3444C153.158 39.3102 155.975 43.358 159.857 43.7633C163.483 44.1347 167.18 43.8381 170.897 43.8381Z" fill="black"/>
<path d="M180.421 77.5395V78.9758H174.48V71.208H180.289V72.5836H176.281V74.2516H179.99C180.024 74.7741 180.048 75.1484 180.079 75.6555H176.27V77.5338L180.421 77.5395Z" fill="black"/>
<path d="M194.219 71.2246C194.239 71.6342 194.257 72.0184 194.283 72.5423H190.118V74.2625H193.779C193.824 74.7512 193.858 75.1241 193.906 75.6367H190.094V77.549H194.239V78.9995H188.374V71.2246H194.219Z" fill="black"/>
<path d="M181.731 71.1934H183.431V77.5799H187.238C187.264 78.0714 187.285 78.4824 187.312 78.9823H181.729L181.731 71.1934Z" fill="black"/>
<path d="M78.6887 11.0811H92.3223V61.7017H78.7893V41.4857H60.0696V61.713H46.5891C46.5692 61.3119 46.531 60.8939 46.531 60.4758C46.531 48.7187 46.5367 36.961 46.548 25.2029C46.548 24.6987 46.6897 24.042 47.0269 23.7129C51.1497 19.644 55.3192 15.6231 59.4788 11.5909C59.5822 11.4906 59.7126 11.4186 60.0455 11.1771V29.8947H78.6916L78.6887 11.0811Z" fill="white"/>
<path d="M228.927 9.90173L206.221 32.9651C208.16 34.9663 210.071 37.25 212.302 39.1638C214.852 41.3458 215.795 43.8244 215.561 47.1674C215.266 51.492 215.489 55.8532 215.489 60.199V61.8062L196.433 42.2723C194.373 44.3371 192.357 46.3172 190.403 48.358C190.128 48.6405 190.068 49.2266 190.065 49.6729C190.041 53.8971 190.051 58.12 190.051 62.4389H175.6V61.1678C175.6 49.4069 175.594 37.6464 175.583 25.8865C175.583 25.0617 175.816 24.4826 176.421 23.9092C180.588 19.9985 184.721 16.0524 188.866 12.1191C189.149 11.8451 189.458 11.5866 189.985 11.1149V28.6278L190.602 29.0416C190.794 28.6532 190.903 28.1815 191.195 27.8891C196.916 22.1381 202.657 16.4083 208.419 10.6997C208.922 10.2328 209.574 9.95733 210.261 9.92149C216.108 9.86358 221.955 9.88618 227.802 9.88618L228.927 9.90173Z" fill="white"/>
<path d="M110.987 24.0367V29.9402H128.855V41.3504H111.015V47.833H128.842V61.7049H97.2128C97.193 61.2614 97.1561 60.8377 97.1561 60.414C97.1561 48.655 97.142 36.8945 97.1873 25.1354C97.2118 24.449 97.4804 23.7937 97.9453 23.2867C102.252 18.9509 106.597 14.6532 110.98 10.3936C111.359 10.0236 111.987 9.70014 112.501 9.69873C122.277 9.65777 132.043 9.66763 141.813 9.66904C142.041 9.66904 142.269 9.69023 142.681 9.71141C142.398 10.0716 142.243 10.3215 142.041 10.5306C137.932 14.7845 133.838 19.0483 129.689 23.2613C129.22 23.7061 128.606 23.969 127.959 24.0028C122.754 24.0607 117.548 24.0367 112.342 24.0367H110.987Z" fill="white"/>
<path d="M40.6965 47.8819V61.6648C40.5428 61.7183 40.3837 61.7548 40.2219 61.7736C36.4236 61.7129 32.6167 61.7806 28.8283 61.5462C23.6146 61.2242 18.9917 59.2074 14.9213 55.9971C9.38178 51.6274 6.03257 45.9018 5.004 38.9645C2.94261 24.9923 12.2125 11.7065 26.4694 8.96237C28.1983 8.64188 29.9528 8.47833 31.7114 8.47371C38.9171 8.42145 46.1242 8.45254 53.3298 8.45254H54.5978C54.2762 8.81833 54.0991 9.05418 53.8895 9.25614C49.5471 13.3844 45.2146 17.5239 40.834 21.6126C40.3425 22.0337 39.7256 22.2819 39.0786 22.3188C35.8441 22.46 32.5771 22.2581 29.3723 22.6196C23.3454 23.2975 18.5511 29.1332 18.6786 35.2642C18.8089 41.5829 23.684 47.0585 29.7818 47.7025C30.8529 47.8155 31.9339 47.8692 33.012 47.8791C35.5268 47.8989 38.0472 47.8819 40.6965 47.8819Z" fill="white"/>
<path d="M168.167 48.6445V62.4457C167.897 62.4928 167.624 62.5225 167.35 62.5347C163.362 62.457 159.376 62.7296 155.406 61.8554C145.726 59.7227 137.227 51.1485 135.407 41.4741C133.088 29.1402 138.415 18.0153 149.503 12.1584C153.164 10.2249 157.128 9.30407 161.262 9.27017C168.385 9.21085 175.51 9.24755 182.635 9.24755C182.822 9.24755 183.011 9.28144 183.371 9.31393C183.021 9.69526 182.804 9.95939 182.559 10.1924C178.253 14.3009 173.959 18.4206 169.614 22.4797C169.179 22.8864 168.435 23.1336 167.823 23.1576C165.345 23.255 162.864 23.1378 160.384 23.2805C154.45 23.6222 149.304 28.8606 148.84 34.637C148.273 41.7664 153.196 47.259 159.04 48.3775C159.945 48.5381 160.861 48.6213 161.779 48.6261C163.856 48.6699 165.939 48.6445 168.167 48.6445Z" fill="white"/>
<path d="M41.8671 27.0194V43.0945C41.5384 43.127 41.2338 43.1835 40.9292 43.1835C37.8123 43.1835 34.6855 43.2131 31.5644 43.1835C27.0208 43.1369 23.4747 39.7233 23.3953 35.3677C23.3117 30.7832 26.6539 27.1888 31.2924 27.0434C34.7677 26.9332 38.2487 27.0194 41.8671 27.0194Z" fill="white"/>
<path d="M170.897 43.8385C167.177 43.8385 163.481 44.1351 159.856 43.758C155.975 43.3526 153.158 39.3049 153.433 35.3391C153.701 31.458 157.003 28.0246 160.872 27.8537C164.182 27.7125 167.504 27.8241 170.897 27.8241V43.8385Z" fill="white"/>
</g>
<defs>
<clipPath id="clip0_793_14">
<rect width="240" height="79" fill="white"/>
</clipPath>
</defs>
</svg>
