<svg width="260" height="259" viewBox="0 0 260 259" fill="none" xmlns="http://www.w3.org/2000/svg">
<path d="M27.6611 163.53V144.315C27.6611 143.38 28.0325 142.484 28.6936 141.822C29.3546 141.161 30.2512 140.79 31.1861 140.79C31.736 140.79 32.2781 140.919 32.7692 141.167C33.2603 141.414 33.6867 141.773 34.0144 142.215L45.8792 158.197C45.9517 158.295 45.9963 158.411 46.0082 158.533C46.02 158.654 45.9987 158.776 45.9465 158.886L45.5503 159.71C45.485 159.847 45.375 159.958 45.2382 160.024C45.1015 160.091 44.9463 160.108 44.7982 160.075C44.65 160.041 44.5178 159.957 44.4234 159.838C44.3289 159.719 44.2779 159.572 44.2786 159.42V143.649C44.2786 142.894 44.5787 142.169 45.113 141.635C45.6473 141.101 46.372 140.8 47.1276 140.8C47.8832 140.8 48.6078 141.101 49.1421 141.635C49.6764 142.169 49.9766 142.894 49.9766 143.649V163.256C49.9766 164.087 49.6464 164.884 49.0587 165.472C48.4709 166.059 47.6738 166.39 46.8427 166.39C46.3612 166.389 45.8863 166.278 45.4546 166.065C45.023 165.852 44.6463 165.542 44.3537 165.159L32.16 149.226C32.0821 149.125 32.0348 149.004 32.0238 148.877C32.0128 148.751 32.0385 148.623 32.0978 148.511C32.1669 148.378 32.2787 148.272 32.4152 148.21C32.5518 148.148 32.7052 148.134 32.8508 148.17C32.9964 148.206 33.1256 148.289 33.2178 148.408C33.31 148.526 33.3598 148.672 33.3591 148.822V163.53C33.3591 164.286 33.059 165.01 32.5247 165.545C31.9904 166.079 31.2657 166.379 30.5101 166.379C30.136 166.379 29.7655 166.306 29.4199 166.162C29.0742 166.019 28.7601 165.809 28.4956 165.545C28.231 165.28 28.0212 164.966 27.878 164.621C27.7348 164.275 27.6611 163.904 27.6611 163.53Z" fill="black"/>
<path d="M55.4463 163.282V143.901C55.4463 143.077 55.7737 142.286 56.3566 141.703C56.9395 141.12 57.73 140.793 58.5543 140.793C59.3786 140.793 60.1691 141.12 60.752 141.703C61.3348 142.286 61.6623 143.077 61.6623 143.901V163.282C61.6623 164.106 61.3348 164.897 60.752 165.48C60.1691 166.063 59.3786 166.39 58.5543 166.39C57.73 166.39 56.9395 166.063 56.3566 165.48C55.7737 164.897 55.4463 164.106 55.4463 163.282Z" fill="black"/>
<path d="M67.1123 163.282V143.901C67.1123 143.077 67.4398 142.286 68.0226 141.703C68.6055 141.12 69.396 140.793 70.2203 140.793C71.0446 140.793 71.8351 141.12 72.418 141.703C73.0009 142.286 73.3283 143.077 73.3283 143.901V163.282C73.3283 164.106 73.0009 164.897 72.418 165.48C71.8351 166.063 71.0446 166.39 70.2203 166.39C69.396 166.39 68.6055 166.063 68.0226 165.48C67.4398 164.897 67.1123 164.106 67.1123 163.282ZM72.6109 157.866L71.1475 155.142C71.0887 155.03 71.0624 154.905 71.0716 154.779C71.0807 154.654 71.125 154.533 71.1993 154.432L80.3006 141.977C80.5667 141.613 80.9147 141.317 81.3166 141.112C81.7184 140.908 82.1627 140.801 82.6135 140.801C83.1642 140.802 83.7029 140.961 84.1651 141.261C84.6273 141.56 84.9933 141.987 85.2191 142.489C85.445 142.991 85.5211 143.548 85.4384 144.093C85.3557 144.637 85.1176 145.146 84.7528 145.559L73.6987 157.991C73.6278 158.072 73.5383 158.134 73.4379 158.173C73.3375 158.212 73.2292 158.226 73.1222 158.214C73.0152 158.201 72.9128 158.163 72.8238 158.103C72.7347 158.042 72.6617 157.961 72.6109 157.866ZM79.0444 151.132L86.268 161.383C86.6024 161.859 86.8 162.417 86.8394 162.997C86.8788 163.576 86.7584 164.156 86.4914 164.672C86.2243 165.188 85.8208 165.622 85.3248 165.924C84.8288 166.227 84.2591 166.388 83.678 166.39C83.1633 166.39 82.6563 166.265 82.2006 166.026C81.745 165.787 81.3542 165.441 81.0621 165.017L74.1804 155.033C74.0858 154.895 74.046 154.727 74.069 154.562C74.092 154.397 74.1761 154.246 74.3047 154.139L78.0706 150.998C78.1421 150.939 78.2248 150.896 78.3136 150.871C78.4025 150.846 78.4955 150.84 78.5869 150.853C78.6783 150.865 78.7661 150.897 78.8448 150.945C78.9236 150.993 78.9915 151.057 79.0444 151.132Z" fill="black"/>
<path d="M91.0645 163.282V143.901C91.0645 143.077 91.3919 142.286 91.9748 141.703C92.5576 141.12 93.3482 140.793 94.1725 140.793C94.9967 140.793 95.7873 141.12 96.3701 141.703C96.953 142.286 97.2805 143.077 97.2805 143.901V163.282C97.2805 164.106 96.953 164.897 96.3701 165.48C95.7873 166.063 94.9967 166.39 94.1725 166.39C93.3482 166.39 92.5576 166.063 91.9748 165.48C91.3919 164.897 91.0645 164.106 91.0645 163.282ZM96.563 157.866L95.1023 155.142C95.0425 155.031 95.0154 154.905 95.0241 154.78C95.0328 154.654 95.077 154.533 95.1515 154.432L104.253 141.977C104.519 141.613 104.867 141.317 105.269 141.112C105.671 140.908 106.115 140.801 106.566 140.801C107.118 140.8 107.658 140.96 108.122 141.259C108.586 141.559 108.953 141.987 109.179 142.491C109.405 142.994 109.481 143.553 109.397 144.099C109.312 144.644 109.072 145.154 108.705 145.566L97.6508 157.991C97.5799 158.072 97.4904 158.134 97.39 158.173C97.2896 158.212 97.1813 158.226 97.0743 158.214C96.9674 158.201 96.865 158.163 96.7759 158.103C96.6869 158.042 96.6138 157.961 96.563 157.866ZM102.997 151.132L110.22 161.383C110.555 161.859 110.752 162.417 110.792 162.997C110.831 163.576 110.711 164.156 110.444 164.672C110.176 165.188 109.773 165.622 109.277 165.924C108.781 166.227 108.211 166.388 107.63 166.39C107.116 166.39 106.609 166.265 106.153 166.026C105.697 165.787 105.307 165.441 105.014 165.017L98.1326 155.033C98.0379 154.895 97.9982 154.727 98.0212 154.562C98.0442 154.397 98.1283 154.246 98.2569 154.139L102.028 150.998C102.099 150.94 102.182 150.898 102.27 150.873C102.358 150.849 102.451 150.843 102.541 150.855C102.632 150.868 102.719 150.899 102.798 150.947C102.876 150.994 102.944 151.057 102.997 151.132Z" fill="black"/>
<path d="M125.426 166.926C122.893 166.926 120.693 166.447 118.824 165.489C116.944 164.521 115.417 162.985 114.46 161.099C113.424 159.13 112.906 156.635 112.906 153.613C112.906 149.24 114.007 145.927 116.208 143.676C118.41 141.424 121.48 140.302 125.419 140.309C127.952 140.309 130.158 140.788 132.039 141.746C133.912 142.695 135.44 144.21 136.403 146.077C137.425 148.021 137.936 150.516 137.936 153.562C137.936 157.961 136.842 161.287 134.654 163.538C132.467 165.79 129.391 166.919 125.426 166.926ZM125.426 161.824C126.586 161.86 127.734 161.581 128.747 161.016C129.653 160.48 130.344 159.604 130.819 158.387C131.294 157.17 131.53 155.565 131.528 153.572C131.528 151.552 131.292 149.94 130.819 148.736C130.346 147.533 129.655 146.67 128.747 146.146C127.728 145.598 126.582 145.33 125.426 145.369C124.273 145.33 123.132 145.609 122.127 146.175C121.231 146.71 120.546 147.58 120.073 148.783C119.6 149.987 119.363 151.611 119.363 153.658C119.363 155.679 119.6 157.285 120.073 158.475C120.546 159.665 121.231 160.522 122.127 161.047C123.137 161.596 124.277 161.864 125.426 161.824Z" fill="black"/>
<path d="M149.752 166.939C148.572 166.946 147.392 166.882 146.219 166.747C145.234 166.631 144.258 166.438 143.303 166.17C142.85 166.043 142.404 165.893 141.964 165.724C141.586 165.574 141.263 165.313 141.037 164.975C140.811 164.638 140.691 164.24 140.695 163.834C140.693 163.398 140.797 162.969 140.997 162.583C141.196 162.196 141.487 161.863 141.843 161.613C142.199 161.363 142.61 161.202 143.041 161.144C143.473 161.087 143.912 161.134 144.321 161.283L144.699 161.412C146.055 161.874 147.475 162.118 148.908 162.135C150.083 162.135 150.985 161.91 151.612 161.461C152.238 161.016 152.552 160.329 152.552 159.41C152.558 159.082 152.482 158.757 152.332 158.466C152.181 158.174 151.96 157.924 151.689 157.739C150.988 157.255 150.218 156.88 149.405 156.626C148.459 156.306 147.397 155.942 146.219 155.533C145.467 155.299 144.736 155.004 144.033 154.65C143.326 154.3 142.678 153.84 142.114 153.287C141.533 152.714 141.076 152.029 140.77 151.272C140.414 150.342 140.245 149.351 140.272 148.356C140.27 147.318 140.465 146.29 140.847 145.326C141.243 144.335 141.852 143.443 142.632 142.715C143.523 141.9 144.576 141.282 145.722 140.902C147.141 140.429 148.63 140.202 150.125 140.231C151.056 140.222 151.986 140.286 152.907 140.423C153.697 140.545 154.477 140.732 155.238 140.98C155.724 141.14 156.218 141.33 156.719 141.549C156.95 141.653 157.147 141.821 157.284 142.034C157.422 142.247 157.496 142.495 157.496 142.748V145.403C157.496 145.634 157.435 145.861 157.319 146.061C157.203 146.261 157.037 146.427 156.836 146.543C156.636 146.658 156.409 146.718 156.178 146.718C155.947 146.718 155.72 146.656 155.52 146.54C154.792 146.12 154.027 145.767 153.235 145.486C152.433 145.202 151.592 145.047 150.741 145.025C150.03 144.993 149.318 145.071 148.63 145.256C148.059 145.394 147.54 145.693 147.133 146.118C146.767 146.578 146.578 147.154 146.599 147.742C146.62 148.329 146.851 148.89 147.25 149.322C147.776 149.785 148.394 150.132 149.063 150.34C149.83 150.609 150.687 150.897 151.635 151.202C152.618 151.487 153.585 151.827 154.53 152.22C155.374 152.566 156.16 153.039 156.861 153.621C157.526 154.184 158.052 154.893 158.397 155.693C158.777 156.631 158.96 157.637 158.933 158.648C158.95 160.12 158.58 161.57 157.859 162.852C157.132 164.128 156.053 165.166 154.751 165.844C153.387 166.574 151.72 166.939 149.752 166.939Z" fill="black"/>
<path d="M174.696 166.938C172.163 166.938 169.963 166.458 168.094 165.498C166.215 164.526 164.692 162.985 163.741 161.095C162.705 159.125 162.187 156.63 162.187 153.61C162.187 149.237 163.286 145.923 165.486 143.67C167.686 141.416 170.756 140.294 174.696 140.303C177.229 140.303 179.436 140.783 181.316 141.743C183.198 142.695 184.728 144.221 185.686 146.099C186.708 148.043 187.22 150.538 187.221 153.582C187.221 157.983 186.128 161.309 183.94 163.561C181.752 165.813 178.671 166.938 174.696 166.938ZM174.696 161.833C175.855 161.869 177.003 161.591 178.017 161.028C178.923 160.489 179.614 159.613 180.089 158.399C180.563 157.185 180.8 155.579 180.798 153.582C180.798 151.561 180.562 149.95 180.089 148.746C179.616 147.543 178.925 146.679 178.017 146.156C176.998 145.609 175.852 145.341 174.696 145.379C173.543 145.341 172.402 145.62 171.397 146.185C170.5 146.723 169.816 147.594 169.343 148.795C168.87 149.997 168.633 151.622 168.633 153.67C168.633 155.69 168.87 157.296 169.343 158.487C169.816 159.679 170.5 160.535 171.397 161.056C172.407 161.607 173.547 161.875 174.696 161.833Z" fill="black"/>
<path d="M191.583 163.292V144.76C191.583 143.711 192 142.704 192.742 141.962C193.484 141.22 194.491 140.803 195.541 140.803H206.608C207.242 140.805 207.849 141.059 208.297 141.509C208.744 141.958 208.996 142.567 208.996 143.201C208.996 143.516 208.934 143.828 208.814 144.119C208.693 144.41 208.517 144.675 208.294 144.898C208.071 145.12 207.807 145.297 207.515 145.418C207.224 145.538 206.912 145.6 206.597 145.599H198.47C198.292 145.599 198.122 145.67 197.996 145.795C197.871 145.92 197.8 146.09 197.799 146.268V151.033C197.799 151.121 197.816 151.208 197.85 151.29C197.884 151.371 197.933 151.445 197.996 151.507C198.058 151.569 198.132 151.618 198.213 151.651C198.295 151.685 198.382 151.702 198.47 151.701H205.035C205.682 151.701 206.302 151.958 206.759 152.415C207.216 152.872 207.473 153.492 207.473 154.139C207.473 154.785 207.216 155.405 206.759 155.862C206.302 156.319 205.682 156.576 205.035 156.576H198.47C198.292 156.576 198.122 156.646 197.996 156.771C197.871 156.897 197.8 157.067 197.799 157.244V163.292C197.799 164.116 197.472 164.907 196.889 165.489C196.306 166.072 195.515 166.4 194.691 166.4C193.867 166.4 193.076 166.072 192.493 165.489C191.91 164.907 191.583 164.116 191.583 163.292Z" fill="black"/>
<path d="M218.837 163.292V146.268C218.837 146.18 218.82 146.093 218.786 146.012C218.753 145.931 218.703 145.857 218.641 145.795C218.579 145.733 218.506 145.684 218.425 145.65C218.343 145.617 218.257 145.599 218.169 145.599H214.051C213.415 145.599 212.805 145.347 212.355 144.897C211.905 144.447 211.652 143.837 211.652 143.201C211.653 142.565 211.906 141.956 212.356 141.506C212.805 141.056 213.415 140.803 214.051 140.803H229.94C230.576 140.803 231.186 141.056 231.635 141.506C232.085 141.956 232.338 142.565 232.339 143.201C232.339 143.837 232.086 144.447 231.636 144.897C231.186 145.347 230.576 145.599 229.94 145.599H225.716C225.628 145.599 225.541 145.617 225.46 145.65C225.379 145.684 225.306 145.733 225.244 145.795C225.181 145.857 225.132 145.931 225.099 146.012C225.065 146.093 225.048 146.18 225.048 146.268V163.292C225.048 164.116 224.72 164.907 224.138 165.489C223.555 166.072 222.764 166.4 221.94 166.4C221.116 166.398 220.327 166.07 219.745 165.488C219.164 164.905 218.837 164.115 218.837 163.292Z" fill="black"/>
<path d="M133.903 89.5362C135.034 90.6674 135.679 92.1954 135.701 93.7951C135.723 95.3947 135.119 96.9397 134.019 98.1013L139.065 93.0534C139.432 92.6571 139.777 92.2764 140.101 91.8749L140.474 91.445C140.474 91.4295 140.43 91.4036 140.461 91.4295C141.621 90.0227 142.529 88.4263 143.146 86.7105C143.911 84.4157 144.098 82.2574 143.706 80.2355C143.307 78.1949 142.472 76.2645 141.258 74.5763C141.108 74.3639 140.958 74.1542 140.805 73.947C139.695 72.4442 138.474 71.0262 137.153 69.7045C134.605 67.156 132.284 65.2264 130.191 63.9159L129.655 63.5818C128.58 62.9203 127.348 62.5549 126.086 62.5225C125.192 62.4328 124.29 62.5429 123.444 62.8448C122.597 63.1467 121.829 63.6329 121.194 64.2681L121.077 64.3847C120.992 64.4624 120.906 64.5349 120.818 64.6178L107.044 78.3914C106.969 78.4665 106.897 78.5468 106.827 78.6297L95.2755 90.1837C94.1399 91.3223 93.5027 92.8652 93.5039 94.4734C93.5051 96.0816 94.1446 97.6236 95.2819 98.7605C96.4193 99.8975 97.9614 100.537 99.5696 100.537C101.178 100.538 102.72 99.9003 103.859 98.7643L125.742 76.8814L126.602 76.0759C126.82 75.8533 127.111 75.7169 127.422 75.6917C127.732 75.6665 128.042 75.7542 128.293 75.9387H128.308C128.768 76.2703 129.201 76.6375 129.603 77.0368C130.997 78.4302 131.643 79.8582 131.541 81.3207C131.468 82.3567 130.97 83.479 130.046 84.6877L116.63 98.1091C116.457 98.2852 116.286 98.4587 116.112 98.6271L125.208 89.531C125.779 88.9599 126.457 88.5069 127.203 88.1981C127.949 87.8892 128.749 87.7305 129.557 87.731C130.364 87.7315 131.164 87.8911 131.909 88.2009C132.655 88.5106 133.333 88.9644 133.903 89.5362Z" fill="black"/>
<path d="M159.585 101.864C160.598 100.672 161.111 99.1345 161.017 97.5731C160.923 96.0116 160.231 94.5467 159.083 93.4838C157.935 92.421 156.421 91.8424 154.857 91.8687C153.293 91.8951 151.8 92.5244 150.689 93.6254L129.412 114.882L128.257 115.959C128.038 116.182 127.747 116.318 127.437 116.343C127.126 116.368 126.817 116.281 126.565 116.096H126.55C126.09 115.766 125.657 115.4 125.255 115.001C123.861 113.607 123.216 112.179 123.318 110.717C123.39 109.681 123.888 108.558 124.812 107.35L133.812 98.3159C133.846 98.2874 133.877 98.2563 133.908 98.2252L134.025 98.1035C135.16 96.9357 135.786 95.3646 135.763 93.7358C135.741 92.1069 135.072 90.5537 133.904 89.4179C133.326 88.8555 132.643 88.4125 131.893 88.1142C131.144 87.8159 130.343 87.6681 129.536 87.6793C127.908 87.7019 126.354 88.3706 125.219 89.5384L116.123 98.6344C115.63 99.1524 115.175 99.6627 114.758 100.165L114.361 100.559L114.398 100.611C113.236 102.016 112.327 103.613 111.712 105.33C110.949 107.624 110.761 109.783 111.15 111.805C111.549 113.846 112.383 115.777 113.597 117.466C113.745 117.674 113.895 117.878 114.045 118.083C115.157 119.59 116.38 121.012 117.705 122.336C119.809 124.466 122.115 126.387 124.589 128.072L124.695 128.184C125.259 128.747 125.928 129.194 126.664 129.499C127.4 129.805 128.189 129.962 128.986 129.962C129.783 129.962 130.572 129.805 131.308 129.499C132.044 129.194 132.713 128.747 133.276 128.184L134.118 127.342L158.609 102.874L158.891 102.592C158.977 102.514 159.065 102.439 159.15 102.356C159.303 102.2 159.449 102.035 159.585 101.864Z" fill="black"/>
<path d="M88.8757 111.36C92.1914 111.36 94.8793 108.672 94.8793 105.356C94.8793 102.04 92.1914 99.3525 88.8757 99.3525C85.56 99.3525 82.8721 102.04 82.8721 105.356C82.8721 108.672 85.56 111.36 88.8757 111.36Z" fill="black"/>
<path d="M166.068 93.1332C169.384 93.1332 172.072 90.4453 172.072 87.1296C172.072 83.8139 169.384 81.126 166.068 81.126C162.752 81.126 160.064 83.8139 160.064 87.1296C160.064 90.4453 162.752 93.1332 166.068 93.1332Z" fill="black"/>
<path d="M79.4693 182.077C79.4578 182.459 79.3697 182.834 79.2103 183.181C79.0188 183.613 78.7513 184.006 78.4204 184.344C78.0322 184.745 77.5647 185.06 77.0477 185.271C76.4288 185.519 75.7665 185.639 75.1 185.626C74.5837 185.631 74.0685 185.578 73.5641 185.468C73.1229 185.367 72.7 185.198 72.3106 184.968C71.919 184.729 71.5691 184.428 71.2746 184.077C70.988 183.735 70.746 183.358 70.5546 182.955C70.3529 182.532 70.2025 182.086 70.1065 181.627C70.0057 181.134 69.9563 180.632 69.9589 180.13C69.9462 179.345 70.0734 178.565 70.3344 177.825C70.565 177.175 70.9304 176.582 71.4067 176.084C71.8668 175.605 72.424 175.23 73.041 174.983C73.6766 174.729 74.3557 174.6 75.0404 174.605C75.8392 174.591 76.6297 174.769 77.3455 175.123C77.9591 175.416 78.4923 175.853 78.8995 176.398C79.2232 176.81 79.4114 177.312 79.4383 177.835C79.4407 178.079 79.3477 178.314 79.1793 178.49C79.1007 178.58 79.0035 178.652 78.8944 178.701C78.7852 178.75 78.6668 178.774 78.5473 178.773C78.3225 178.79 78.0997 178.719 77.9257 178.576C77.7381 178.376 77.5825 178.148 77.4647 177.9C77.2347 177.431 76.8943 177.025 76.4727 176.716C76.056 176.442 75.5646 176.305 75.0663 176.322C74.658 176.308 74.2523 176.393 73.8836 176.568C73.5148 176.744 73.1938 177.006 72.9477 177.333C72.4194 178.006 72.1604 178.963 72.1707 180.205C72.1488 180.912 72.2676 181.616 72.5204 182.277C72.7145 182.78 73.0591 183.21 73.5072 183.51C73.9568 183.786 74.4765 183.927 75.0042 183.916C75.5647 183.934 76.1163 183.772 76.5789 183.455C77.0337 183.113 77.3726 182.639 77.5502 182.098C77.6254 181.852 77.741 181.62 77.892 181.412C77.9731 181.32 78.0748 181.249 78.1886 181.204C78.3025 181.159 78.4254 181.141 78.5473 181.153C78.6691 181.15 78.7903 181.171 78.9037 181.216C79.0171 181.26 79.1205 181.327 79.2078 181.412C79.2947 181.499 79.3628 181.603 79.4078 181.717C79.4528 181.832 79.4738 181.954 79.4693 182.077Z" fill="black"/>
<path d="M86.1739 174.61C87.1658 174.581 88.1478 174.813 89.0229 175.281C89.81 175.715 90.4433 176.383 90.8359 177.192C91.2602 178.103 91.4685 179.101 91.4446 180.106C91.454 180.867 91.3412 181.625 91.1104 182.351C90.9025 182.999 90.561 183.597 90.1081 184.105C89.6552 184.604 89.0933 184.992 88.4661 185.239C87.7537 185.511 86.9958 185.644 86.2335 185.63C85.4675 185.643 84.7065 185.505 83.9931 185.226C83.3633 184.979 82.7988 184.59 82.3433 184.089C81.8895 183.577 81.5489 182.975 81.3435 182.323C81.1127 181.601 80.9982 180.848 81.0042 180.09C80.9967 179.325 81.1157 178.563 81.3565 177.837C81.5709 177.19 81.9196 176.595 82.3795 176.091C82.8327 175.606 83.3896 175.23 84.0087 174.99C84.7 174.729 85.4346 174.599 86.1739 174.61ZM89.2431 180.09C89.2588 179.395 89.1301 178.705 88.8649 178.062C88.6444 177.53 88.2667 177.078 87.7823 176.767C87.2994 176.469 86.7411 176.317 86.1739 176.327C85.7623 176.322 85.3544 176.405 84.9773 176.57C84.6126 176.732 84.2894 176.975 84.032 177.28C83.7458 177.63 83.5335 178.035 83.4078 178.469C83.2481 178.995 83.1703 179.543 83.1773 180.093C83.1706 180.649 83.2483 181.204 83.4078 181.737C83.5375 182.183 83.757 182.597 84.0527 182.955C84.316 183.263 84.6441 183.51 85.0136 183.677C85.3884 183.841 85.7935 183.923 86.2024 183.918C86.7384 183.922 87.2651 183.779 87.7253 183.504C88.2137 183.198 88.5989 182.752 88.8312 182.224C89.1252 181.552 89.2659 180.823 89.2431 180.09Z" fill="black"/>
<path d="M96.1671 175.903L100.311 182.186V175.846C100.285 175.516 100.376 175.187 100.57 174.919C100.659 174.816 100.769 174.736 100.893 174.682C101.018 174.629 101.152 174.604 101.288 174.611C101.425 174.604 101.562 174.628 101.689 174.681C101.816 174.734 101.929 174.816 102.02 174.919C102.215 175.187 102.307 175.516 102.279 175.846V184.227C102.279 185.165 101.891 185.631 101.117 185.631C100.94 185.633 100.765 185.605 100.599 185.548C100.438 185.489 100.29 185.401 100.161 185.289C100.02 185.161 99.893 185.017 99.7827 184.862C99.6662 184.701 99.5496 184.533 99.4331 184.364L95.3849 178.148V184.409C95.4089 184.741 95.3072 185.07 95.1 185.331C95.0061 185.43 94.8929 185.509 94.7673 185.563C94.6417 185.617 94.5064 185.645 94.3696 185.645C94.2329 185.645 94.0976 185.617 93.972 185.563C93.8464 185.509 93.7332 185.43 93.6392 185.331C93.439 185.068 93.3414 184.741 93.3647 184.411V176.172C93.3546 175.894 93.3932 175.616 93.4787 175.351C93.5737 175.13 93.7336 174.943 93.9371 174.815C94.1428 174.681 94.3831 174.61 94.6286 174.611C94.7991 174.606 94.9687 174.638 95.1259 174.704C95.2624 174.767 95.3862 174.855 95.4911 174.963C95.6105 175.09 95.7172 175.229 95.8097 175.377L96.1671 175.903Z" fill="black"/>
<path d="M112.838 182.25C112.846 182.866 112.674 183.47 112.341 183.988C111.982 184.523 111.475 184.943 110.883 185.195C110.164 185.501 109.387 185.65 108.606 185.63C107.705 185.664 106.812 185.458 106.016 185.035C105.536 184.753 105.131 184.361 104.835 183.89C104.553 183.479 104.396 182.995 104.382 182.497C104.381 182.37 104.405 182.245 104.454 182.128C104.502 182.011 104.573 181.905 104.663 181.816C104.754 181.728 104.861 181.658 104.978 181.612C105.096 181.565 105.222 181.543 105.348 181.546C105.561 181.541 105.769 181.619 105.926 181.764C106.108 181.946 106.246 182.167 106.33 182.411C106.444 182.71 106.591 182.995 106.77 183.261C106.941 183.501 107.17 183.695 107.435 183.825C107.788 183.987 108.174 184.062 108.562 184.045C109.115 184.07 109.66 183.914 110.116 183.6C110.3 183.477 110.451 183.311 110.556 183.117C110.66 182.922 110.716 182.705 110.717 182.484C110.723 182.325 110.698 182.168 110.642 182.02C110.587 181.871 110.502 181.736 110.393 181.621C110.159 181.385 109.873 181.207 109.557 181.103C109.107 180.956 108.649 180.833 108.187 180.733C107.525 180.589 106.881 180.378 106.262 180.103C105.776 179.887 105.353 179.549 105.035 179.122C104.718 178.667 104.558 178.122 104.579 177.568C104.572 177.012 104.74 176.469 105.058 176.014C105.409 175.535 105.893 175.17 106.449 174.962C107.131 174.705 107.856 174.581 108.585 174.597C109.161 174.585 109.735 174.667 110.284 174.84C110.718 174.977 111.121 175.196 111.471 175.485C111.757 175.718 111.992 176.006 112.162 176.332C112.3 176.601 112.375 176.898 112.38 177.2C112.378 177.457 112.281 177.704 112.108 177.894C112.025 177.993 111.921 178.071 111.803 178.125C111.686 178.178 111.558 178.204 111.429 178.202C111.224 178.217 111.021 178.15 110.865 178.016C110.697 177.835 110.556 177.631 110.448 177.41C110.285 177.049 110.046 176.728 109.748 176.467C109.477 176.243 109.046 176.13 108.453 176.13C107.976 176.108 107.504 176.235 107.104 176.496C106.95 176.588 106.823 176.718 106.732 176.872C106.642 177.027 106.591 177.202 106.586 177.381C106.582 177.58 106.644 177.774 106.762 177.933C106.891 178.099 107.054 178.235 107.241 178.332C107.438 178.44 107.645 178.527 107.86 178.591C108.067 178.656 108.412 178.746 108.896 178.868C109.448 178.995 109.992 179.151 110.528 179.334C110.969 179.48 111.388 179.688 111.771 179.951C112.108 180.188 112.383 180.503 112.571 180.87C112.77 181.302 112.862 181.776 112.838 182.25Z" fill="black"/>
<path d="M114.761 181.041V175.918C114.734 175.565 114.839 175.215 115.056 174.936C115.154 174.828 115.274 174.742 115.408 174.686C115.543 174.629 115.688 174.603 115.833 174.61C115.982 174.602 116.13 174.628 116.268 174.684C116.406 174.741 116.53 174.827 116.631 174.936C116.848 175.215 116.953 175.565 116.926 175.918V181.16C116.914 181.665 116.981 182.169 117.126 182.654C117.246 183.037 117.497 183.366 117.835 183.584C118.269 183.828 118.763 183.943 119.26 183.915C120.104 183.915 120.7 183.691 121.047 183.242C121.397 182.794 121.565 182.113 121.565 181.204V175.918C121.538 175.564 121.642 175.212 121.858 174.931C121.956 174.824 122.076 174.739 122.211 174.684C122.345 174.629 122.49 174.603 122.635 174.61C122.782 174.604 122.928 174.63 123.064 174.685C123.2 174.74 123.323 174.824 123.425 174.931C123.647 175.209 123.754 175.562 123.725 175.918V181.041C123.741 181.744 123.659 182.447 123.482 183.128C123.314 183.692 122.997 184.2 122.562 184.597C122.173 184.951 121.712 185.216 121.21 185.374C120.623 185.552 120.011 185.64 119.397 185.633C118.683 185.648 117.97 185.561 117.281 185.374C116.738 185.224 116.24 184.942 115.833 184.553C115.444 184.153 115.162 183.663 115.012 183.125C114.828 182.446 114.743 181.744 114.761 181.041Z" fill="black"/>
<path d="M128.249 175.918V183.675H132.626C132.917 183.658 133.203 183.75 133.429 183.934C133.519 184.014 133.591 184.113 133.639 184.223C133.687 184.334 133.711 184.453 133.708 184.574C133.713 184.694 133.69 184.813 133.643 184.923C133.595 185.034 133.524 185.132 133.434 185.211C133.204 185.389 132.916 185.475 132.626 185.455H127.41C127.228 185.49 127.041 185.48 126.864 185.426C126.688 185.372 126.527 185.275 126.396 185.144C126.266 185.014 126.169 184.853 126.115 184.676C126.061 184.5 126.051 184.312 126.086 184.131V175.918C126.059 175.566 126.164 175.216 126.381 174.937C126.479 174.828 126.599 174.743 126.733 174.687C126.868 174.63 127.013 174.604 127.158 174.61C127.303 174.606 127.447 174.633 127.581 174.688C127.715 174.744 127.835 174.827 127.935 174.931C128.162 175.208 128.274 175.561 128.249 175.918Z" fill="black"/>
<path d="M140.261 176.571H137.907V184.315C137.935 184.671 137.829 185.025 137.609 185.307C137.511 185.414 137.391 185.499 137.257 185.555C137.122 185.611 136.978 185.636 136.832 185.63C136.687 185.635 136.543 185.608 136.409 185.551C136.275 185.495 136.154 185.411 136.055 185.304C135.835 185.023 135.728 184.67 135.755 184.315V176.571H133.398C133.103 176.595 132.811 176.508 132.577 176.327C132.49 176.243 132.422 176.142 132.375 176.031C132.328 175.92 132.304 175.8 132.304 175.68C132.304 175.559 132.328 175.439 132.375 175.328C132.422 175.217 132.49 175.116 132.577 175.032C132.81 174.859 133.098 174.775 133.388 174.794H140.251C140.552 174.773 140.849 174.865 141.085 175.053C141.172 175.136 141.241 175.237 141.285 175.348C141.33 175.46 141.35 175.58 141.344 175.7C141.349 175.821 141.326 175.942 141.278 176.053C141.23 176.164 141.158 176.263 141.067 176.343C140.834 176.512 140.548 176.592 140.261 176.571Z" fill="black"/>
<path d="M147.213 174.61C148.205 174.581 149.187 174.813 150.062 175.281C150.844 175.717 151.472 176.385 151.86 177.192C152.285 178.103 152.494 179.1 152.471 180.106C152.48 180.867 152.368 181.625 152.137 182.351C151.929 182.999 151.587 183.597 151.135 184.105C150.681 184.604 150.118 184.992 149.49 185.239C148.778 185.512 148.02 185.644 147.257 185.63C146.492 185.643 145.732 185.505 145.02 185.226C144.39 184.979 143.825 184.59 143.37 184.089C142.914 183.579 142.573 182.976 142.37 182.323C142.139 181.601 142.025 180.848 142.031 180.09C142.022 179.325 142.141 178.563 142.383 177.837C142.601 177.188 142.954 176.593 143.419 176.091C143.871 175.607 144.427 175.23 145.045 174.99C145.738 174.728 146.473 174.599 147.213 174.61ZM150.282 180.09C150.298 179.395 150.169 178.705 149.904 178.062C149.686 177.53 149.308 177.078 148.824 176.767C148.34 176.469 147.781 176.317 147.213 176.327C146.803 176.322 146.396 176.405 146.019 176.57C145.654 176.732 145.331 176.975 145.074 177.28C144.787 177.63 144.574 178.034 144.447 178.469C144.288 178.995 144.212 179.543 144.219 180.093C144.212 180.649 144.289 181.204 144.447 181.737C144.578 182.183 144.798 182.597 145.095 182.955C145.357 183.264 145.686 183.511 146.056 183.677C146.43 183.841 146.836 183.923 147.244 183.918C147.78 183.922 148.307 183.778 148.767 183.504C149.256 183.199 149.641 182.753 149.871 182.224C150.165 181.552 150.305 180.823 150.282 180.09Z" fill="black"/>
<path d="M157.293 180.891H156.537V184.315C156.566 184.673 156.459 185.028 156.239 185.312C156.14 185.417 156.019 185.5 155.885 185.555C155.751 185.61 155.607 185.636 155.462 185.63C155.312 185.639 155.162 185.613 155.023 185.556C154.885 185.498 154.761 185.409 154.662 185.296C154.453 185.013 154.352 184.665 154.377 184.315V176.12C154.343 175.939 154.354 175.752 154.408 175.576C154.463 175.4 154.559 175.24 154.69 175.11C154.82 174.98 154.98 174.883 155.157 174.829C155.333 174.775 155.519 174.765 155.7 174.799H159.212C159.628 174.796 160.043 174.816 160.456 174.861C160.777 174.9 161.091 174.987 161.385 175.12C161.719 175.26 162.021 175.465 162.274 175.724C162.529 175.985 162.729 176.296 162.859 176.638C162.994 176.989 163.061 177.363 163.059 177.739C163.093 178.437 162.851 179.121 162.385 179.642C161.936 180.119 161.257 180.457 160.347 180.655C160.765 180.886 161.137 181.191 161.445 181.556C161.793 181.951 162.106 182.376 162.38 182.826C162.622 183.214 162.835 183.619 163.02 184.038C163.136 184.272 163.213 184.524 163.248 184.784C163.244 184.934 163.197 185.079 163.113 185.203C163.022 185.342 162.896 185.454 162.748 185.53C162.58 185.612 162.396 185.652 162.209 185.649C161.993 185.656 161.779 185.596 161.598 185.478C161.43 185.362 161.286 185.215 161.173 185.045C161.054 184.872 160.893 184.615 160.689 184.268L159.824 182.828C159.584 182.401 159.304 181.997 158.99 181.621C158.789 181.377 158.535 181.183 158.246 181.054C157.942 180.94 157.618 180.885 157.293 180.891ZM158.529 176.413H156.537V179.342H158.472C158.912 179.351 159.351 179.306 159.78 179.207C160.09 179.141 160.373 178.981 160.59 178.749C160.789 178.496 160.889 178.179 160.87 177.858C160.875 177.582 160.796 177.311 160.645 177.081C160.495 176.848 160.277 176.667 160.02 176.563C159.535 176.431 159.031 176.38 158.529 176.413Z" fill="black"/>
<path d="M172.202 176.454H167.335V179.072H171.816C172.081 179.052 172.344 179.131 172.554 179.295C172.635 179.369 172.698 179.46 172.74 179.561C172.782 179.662 172.802 179.771 172.798 179.88C172.802 179.99 172.782 180.1 172.741 180.201C172.699 180.303 172.636 180.395 172.557 180.471C172.349 180.641 172.083 180.723 171.816 180.701H167.335V183.732H172.368C172.648 183.708 172.926 183.794 173.145 183.97C173.23 184.05 173.298 184.148 173.343 184.256C173.387 184.365 173.408 184.482 173.404 184.599C173.407 184.714 173.386 184.828 173.341 184.934C173.296 185.04 173.229 185.135 173.145 185.213C172.925 185.388 172.647 185.473 172.368 185.449H166.501C166.32 185.484 166.133 185.474 165.956 185.42C165.779 185.366 165.619 185.269 165.488 185.139C165.357 185.008 165.261 184.847 165.207 184.671C165.153 184.494 165.143 184.307 165.178 184.125V176.12C165.169 175.86 165.215 175.601 165.315 175.361C165.402 175.17 165.556 175.018 165.748 174.933C165.986 174.835 166.243 174.789 166.501 174.799H172.199C172.474 174.776 172.746 174.857 172.963 175.027C173.043 175.106 173.106 175.2 173.15 175.303C173.193 175.407 173.215 175.518 173.215 175.63C173.215 175.742 173.193 175.853 173.15 175.957C173.106 176.061 173.043 176.155 172.963 176.234C172.746 176.399 172.474 176.478 172.202 176.454Z" fill="black"/>
<path d="M183.284 182.25C183.291 182.866 183.118 183.471 182.784 183.988C182.425 184.523 181.919 184.943 181.326 185.195C180.608 185.501 179.832 185.649 179.052 185.63C178.151 185.664 177.258 185.459 176.462 185.035C175.981 184.755 175.576 184.362 175.281 183.89C174.998 183.479 174.84 182.995 174.825 182.497C174.824 182.37 174.849 182.245 174.897 182.128C174.945 182.011 175.017 181.905 175.107 181.816C175.197 181.728 175.304 181.658 175.422 181.612C175.539 181.565 175.665 181.543 175.791 181.546C176.005 181.54 176.212 181.618 176.369 181.764C176.551 181.946 176.689 182.167 176.773 182.411C176.888 182.709 177.036 182.994 177.213 183.261C177.385 183.501 177.614 183.695 177.879 183.825C178.232 183.987 178.618 184.062 179.005 184.045C179.558 184.07 180.104 183.914 180.559 183.6C180.744 183.477 180.895 183.312 180.999 183.117C181.104 182.922 181.16 182.705 181.16 182.484C181.167 182.325 181.141 182.168 181.086 182.02C181.03 181.871 180.945 181.736 180.837 181.621C180.603 181.384 180.316 181.207 180 181.103C179.55 180.956 179.093 180.833 178.63 180.733C177.97 180.589 177.326 180.378 176.708 180.103C176.221 179.887 175.797 179.549 175.478 179.122C175.162 178.667 175.003 178.121 175.025 177.568C175.017 177.012 175.185 176.469 175.504 176.014C175.853 175.535 176.336 175.169 176.892 174.962C177.574 174.705 178.3 174.581 179.029 174.597C179.605 174.585 180.179 174.667 180.728 174.84C181.162 174.978 181.565 175.197 181.917 175.485C182.202 175.718 182.437 176.006 182.608 176.332C182.746 176.601 182.821 176.898 182.826 177.2C182.828 177.455 182.736 177.703 182.567 177.894C182.483 177.992 182.378 178.071 182.261 178.124C182.143 178.178 182.015 178.204 181.886 178.202C181.68 178.217 181.477 178.15 181.321 178.016C181.153 177.835 181.013 177.631 180.904 177.41C180.742 177.049 180.503 176.727 180.205 176.467C179.946 176.242 179.498 176.13 178.91 176.13C178.433 176.108 177.961 176.236 177.56 176.496C177.407 176.588 177.279 176.718 177.189 176.873C177.098 177.027 177.048 177.202 177.042 177.381C177.037 177.579 177.098 177.773 177.216 177.933C177.345 178.099 177.509 178.234 177.695 178.332C177.892 178.44 178.099 178.526 178.314 178.591C178.521 178.656 178.866 178.746 179.35 178.868C179.902 178.995 180.448 179.15 180.984 179.334C181.425 179.48 181.844 179.688 182.227 179.951C182.564 180.188 182.837 180.504 183.025 180.87C183.221 181.303 183.31 181.776 183.284 182.25Z" fill="black"/>
</svg>
