<svg width="238" height="153" viewBox="0 0 238 153" fill="none" xmlns="http://www.w3.org/2000/svg">
<g clip-path="url(#clip0_793_58)">
<path d="M96.3075 147.236L96.3313 147.307C96.3608 148.947 95.8935 150.222 94.9294 151.132C93.9653 152.042 92.6393 152.495 90.9516 152.493C89.2094 152.493 87.8222 151.945 86.79 150.849C85.7579 149.754 85.2407 148.216 85.2384 146.235V141.608C85.2384 139.634 85.7477 138.094 86.7662 136.987C87.7848 135.88 89.1527 135.326 90.8699 135.326C92.6053 135.326 93.9585 135.767 94.9294 136.65C95.9003 137.532 96.371 138.822 96.3415 140.519L96.3177 140.587H94.0447C94.0447 139.396 93.7804 138.519 93.2518 137.956C92.7233 137.394 91.9293 137.113 90.8699 137.113C90.4037 137.09 89.9393 137.184 89.5183 137.385C89.0972 137.587 88.7327 137.889 88.4574 138.266C87.8891 139.035 87.6067 140.134 87.6067 141.574V146.235C87.6067 147.687 87.8982 148.799 88.4812 149.57C88.7669 149.95 89.1414 150.255 89.5721 150.457C90.0027 150.66 90.4764 150.753 90.9516 150.73C91.9792 150.73 92.7494 150.452 93.262 149.897C93.7747 149.341 94.0311 148.453 94.0311 147.232L96.3075 147.236Z" fill="#231F20"/>
<path d="M105.087 150.509H111.957V152.272H102.718V135.599H105.1L105.087 150.509Z" fill="#231F20"/>
<path d="M120.63 152.255H118.248V135.582H120.63V152.255ZM120.327 130.896H123.05L123.084 130.951L120.259 133.942H118.279L120.327 130.896Z" fill="#231F20"/>
<path d="M139.311 152.255H136.929L130.355 139.961L130.284 139.985V152.269H127.902V135.596H130.284L136.861 147.869H136.932V135.62H139.314L139.311 152.255Z" fill="#231F20"/>
<path d="M148.954 152.255H146.572V135.582H148.954V152.255Z" fill="#231F20"/>
<path d="M166.867 147.236L166.891 147.307C166.92 148.947 166.453 150.222 165.489 151.132C164.525 152.042 163.199 152.495 161.511 152.493C159.771 152.493 158.384 151.945 157.349 150.849C156.315 149.754 155.798 148.216 155.798 146.235V141.608C155.798 139.634 156.307 138.094 157.326 136.987C158.344 135.88 159.713 135.326 161.433 135.326C163.166 135.326 164.518 135.767 165.489 136.65C166.46 137.532 166.93 138.822 166.901 140.519L166.877 140.587H164.607C164.607 139.396 164.343 138.519 163.815 137.956C163.286 137.394 162.492 137.113 161.433 137.113C160.966 137.09 160.501 137.184 160.079 137.385C159.658 137.586 159.293 137.889 159.017 138.266C158.448 139.035 158.166 140.134 158.166 141.574V146.235C158.166 147.687 158.458 148.799 159.041 149.57C159.326 149.95 159.701 150.255 160.131 150.457C160.562 150.66 161.036 150.753 161.511 150.73C162.539 150.73 163.309 150.452 163.821 149.897C164.334 149.341 164.592 148.453 164.594 147.232L166.867 147.236Z" fill="#231F20"/>
<path d="M180.79 148.039H175.713L174.475 152.255H172.015L177.119 135.582H179.416L184.469 152.255H182.005L180.79 148.039ZM176.251 146.195H180.259L178.299 139.41H178.231L176.251 146.195Z" fill="#231F20"/>
<path d="M118.116 86.0542H106.468V82.7944H118.116C123.584 82.7944 129.314 81.1305 129.314 74.7333C129.314 68.2069 123.325 65.4541 117.66 65.4541H102.487V82.808V86.0712V103.983H117.65C123.38 103.983 130.737 102.622 130.737 95.5376C130.682 88.5484 124.234 86.0542 118.116 86.0542Z" fill="#231F20"/>
<path d="M0 50.1699V122.355H184.452V50.1699H0ZM14.2745 86.95H14.2064V107.295H10.6778V62.5082H14.2064V83.8161H14.2881L14.2745 86.95ZM43.2249 107.295H39.7269V86.95H18.242V83.8161H39.7269V62.5082H43.2419L43.2249 107.295ZM87.1201 107.295H54.886V62.5082H86.3443V65.7817H58.3398V83.1832H58.3875V86.3205H58.3398V103.977H87.1201V107.295ZM86.4396 83.9624V87.0964H63.74V83.9624H86.4396ZM117.649 107.295H98.9718V62.5082H117.649C125.333 62.5082 132.621 66.2206 132.621 74.7308C132.621 79.3347 129.756 82.9178 125.2 84.3265C130.93 85.8612 134.183 90.4038 134.183 95.5862C134.197 104.801 125.476 107.295 117.649 107.295ZM175.921 107.295H143.697V62.5082H175.156V65.7817H147.151V79.5797H147.063V90.921H147.151V103.977H175.931L175.921 107.295ZM175.241 83.1356V86.2695H152.415V83.1356H175.241Z" fill="#231F20"/>
<path d="M191.274 43.667V79.5999H197.484V0.5H191.274V38.1274H153.358V43.667H191.274Z" fill="#231F20"/>
<path d="M237.97 37.9717H203.769V43.5079H237.97V37.9717Z" fill="#231F20"/>
</g>
<defs>
<clipPath id="clip0_793_58">
<rect width="237.973" height="152" fill="white" transform="translate(0 0.5)"/>
</clipPath>
</defs>
</svg>
