<svg width="414" height="93" viewBox="0 0 414 93" fill="none" xmlns="http://www.w3.org/2000/svg">
<g clip-path="url(#clip0_246_9949)">
<path d="M91.0103 53.1001C94.3622 28.0791 76.7958 5.07831 51.7748 1.72646C26.7537 -1.6254 3.75296 15.941 0.401101 40.962C-2.95075 65.983 14.6156 88.9838 39.6366 92.3357C64.6577 95.6875 87.6584 78.1212 91.0103 53.1001Z" fill="#EFEFEF"/>
<path d="M25.3718 45.5195C22.6569 45.5194 19.9761 44.916 17.523 43.7529C15.0699 42.5899 12.9059 40.8963 11.1875 38.7946C9.46912 36.6928 8.23923 34.2355 7.5868 31.6002C6.93436 28.965 6.87567 26.2177 7.41499 23.557C7.9543 20.8963 9.07814 18.3886 10.7052 16.2154C12.3323 14.0422 14.422 12.2578 16.8232 10.9911C19.2244 9.72434 21.877 9.00703 24.5894 8.89101C27.3017 8.77499 30.0059 9.26315 32.5065 10.3202C33.1187 10.5998 33.5977 11.1072 33.8416 11.7345C34.0855 12.3618 34.0751 13.0595 33.8126 13.6792C33.5501 14.2989 33.0563 14.7918 32.436 15.0531C31.8157 15.3144 31.118 15.3234 30.4912 15.0782C28.8721 14.3911 27.1306 14.0391 25.3718 14.0435C21.9249 14.1073 18.6408 15.5215 16.2257 17.9817C13.8107 20.4419 12.4577 23.7516 12.4577 27.1991C12.4577 30.6466 13.8107 33.9563 16.2257 36.4166C18.6408 38.8768 21.9249 40.2909 25.3718 40.3548C32.5065 40.3548 38.5297 33.9927 38.5297 26.4603C38.5297 26.367 38.5297 26.2721 38.5297 26.1757C38.5297 26.0492 39.8852 13.2934 36.9075 3.61924C36.7916 3.29113 36.7432 2.943 36.7651 2.59571C36.787 2.24842 36.8788 1.90913 37.035 1.59818C37.1912 1.28724 37.4086 1.01103 37.6742 0.786139C37.9397 0.561244 38.2479 0.39228 38.5803 0.289389C38.9128 0.186497 39.2625 0.1518 39.6087 0.187361C39.9548 0.222922 40.2903 0.328012 40.5948 0.496341C40.8994 0.664669 41.1668 0.892761 41.3811 1.16695C41.5953 1.44113 41.752 1.75577 41.8417 2.09198C45.0047 12.349 43.8435 25.037 43.6808 26.6049C43.6175 36.871 35.2583 45.5195 25.3718 45.5195Z" fill="#232531"/>
<path d="M66.6348 45.5193C69.3496 45.5192 72.0304 44.9158 74.4835 43.7528C76.9366 42.5898 79.1006 40.8961 80.819 38.7944C82.5374 36.6927 83.7673 34.2353 84.4197 31.6001C85.0722 28.9648 85.1308 26.2175 84.5915 23.5568C84.0522 20.8961 82.9284 18.3885 81.3013 16.2153C79.6742 14.0421 77.5845 12.2576 75.1833 10.9909C72.7822 9.72417 70.1295 9.00686 67.4172 8.89084C64.7048 8.77482 62.0006 9.26299 59.5 10.32C58.8947 10.6035 58.4227 11.1105 58.1832 11.7345C57.9437 12.3585 57.9552 13.0511 58.2154 13.6668C58.4756 14.2825 58.9642 14.7734 59.5787 15.0366C60.1931 15.2997 60.8856 15.3146 61.5108 15.078C63.3071 14.3127 65.2512 13.9568 67.2022 14.0361C69.1531 14.1154 71.0619 14.6279 72.7903 15.5364C74.5186 16.4449 76.023 17.7267 77.1945 19.2888C78.366 20.8508 79.1751 22.6541 79.5633 24.5677C79.9514 26.4813 79.9088 28.4572 79.4385 30.3523C78.9682 32.2474 78.082 34.0141 76.8443 35.5242C75.6065 37.0343 74.0482 38.25 72.2823 39.0831C70.5165 39.9163 68.5873 40.346 66.6348 40.3411C59.5 40.3411 53.4768 33.979 53.4768 26.4466C53.4768 26.3532 53.4768 26.2583 53.4768 26.162C53.4768 26.0354 52.1213 13.2797 55.099 3.60553C55.2712 2.96025 55.1869 2.27336 54.8639 1.68884C54.5408 1.10432 54.004 0.667537 53.366 0.470062C52.728 0.272586 52.0383 0.329744 51.4416 0.62955C50.8448 0.929356 50.3872 1.44854 50.1648 2.07827C47.0018 12.3353 48.1631 25.0233 48.3257 26.5912C48.389 36.8708 56.7482 45.5193 66.6348 45.5193Z" fill="#232531"/>
<path d="M25.3718 47.0293C22.6569 47.0294 19.9761 47.6328 17.523 48.7958C15.0699 49.9588 12.9059 51.6524 11.1875 53.7542C9.46912 55.8559 8.23923 58.3132 7.5868 60.9485C6.93436 63.5837 6.87567 66.3311 7.41499 68.9918C7.9543 71.6525 9.07814 74.1601 10.7052 76.3333C12.3323 78.5065 14.422 80.291 16.8232 81.5577C19.2244 82.8244 21.877 83.5417 24.5894 83.6577C27.3017 83.7738 30.0059 83.2856 32.5065 82.2285C33.1368 81.9613 33.6352 81.4546 33.892 80.8199C34.1487 80.1852 34.1428 79.4745 33.8756 78.8442C33.6084 78.2138 33.1017 77.7155 32.467 77.4587C31.8323 77.2019 31.1216 77.2078 30.4912 77.4751C28.6955 78.2327 26.7539 78.5819 24.8067 78.4975C22.8595 78.413 20.9554 77.8971 19.232 76.9869C17.5086 76.0768 16.0089 74.7951 14.8413 73.2346C13.6736 71.6741 12.8673 69.8736 12.4805 67.9634C12.0936 66.0532 12.136 64.0808 12.6045 62.189C13.073 60.2971 13.9559 58.533 15.1895 57.024C16.423 55.5151 17.9764 54.299 19.7373 53.4637C21.4983 52.6284 23.4228 52.1947 25.3718 52.194C32.5065 52.194 38.5297 58.556 38.5297 66.0884C38.5297 66.1848 38.5297 66.2797 38.5297 66.3731C38.5297 66.4996 39.8852 79.2554 36.9075 88.9295C36.7293 89.5765 36.8096 90.2675 37.1316 90.8563C37.4537 91.445 37.9921 91.8855 38.633 92.0845C39.2739 92.2834 39.9671 92.2253 40.5659 91.9224C41.1648 91.6194 41.6223 91.0955 41.8417 90.4613C45.0047 80.1997 43.8435 67.5162 43.6808 65.9483C43.6175 55.6777 35.2583 47.0293 25.3718 47.0293Z" fill="#232531"/>
<path d="M66.6348 46.8252C69.3496 46.8253 72.0304 47.4287 74.4835 48.5917C76.9366 49.7547 79.1006 51.4483 80.819 53.5501C82.5374 55.6518 83.7673 58.1092 84.4197 60.7444C85.0722 63.3797 85.1308 66.127 84.5915 68.7877C84.0522 71.4484 82.9284 73.956 81.3013 76.1292C79.6742 78.3024 77.5845 80.0869 75.1833 81.3536C72.7822 82.6203 70.1295 83.3376 67.4172 83.4536C64.7048 83.5697 62.0006 83.0815 59.5 82.0245C58.8947 81.741 58.4227 81.234 58.1832 80.61C57.9437 79.986 57.9552 79.2934 58.2154 78.6777C58.4756 78.062 58.9642 77.5711 59.5787 77.3079C60.1931 77.0448 60.8856 77.0299 61.5108 77.2664C63.3065 78.0259 65.2486 78.3768 67.1966 78.2938C69.1446 78.2107 71.0497 77.6958 72.7743 76.7862C74.4989 75.8766 75.9998 74.5952 77.1685 73.0345C78.3371 71.4738 79.1443 69.6728 79.5317 67.7619C79.9191 65.8511 79.8769 63.878 79.4083 61.9854C78.9397 60.0928 78.0563 58.328 76.8221 56.8186C75.5879 55.3092 74.0336 54.093 72.2718 53.2579C70.5099 52.4228 68.5845 51.9897 66.6348 51.9899C59.5 51.9899 53.4768 58.352 53.4768 65.8798C53.4768 65.9747 53.4768 66.0741 53.4768 66.1645C53.4768 66.2548 52.1213 79.0513 55.099 88.7254C55.2712 89.3707 55.1869 90.0576 54.8639 90.6421C54.5408 91.2266 54.004 91.6634 53.366 91.8609C52.728 92.0584 52.0383 92.0012 51.4416 91.7014C50.8448 91.4016 50.3872 90.8824 50.1648 90.2527C47.0018 79.9956 48.1631 67.3077 48.3257 65.7397C48.389 55.4737 56.7482 46.8252 66.6348 46.8252Z" fill="#232531"/>
<path d="M106.484 13.2305C107.73 11.9287 109.232 10.898 110.895 10.203C112.558 9.50789 114.347 9.16339 116.149 9.19099C117.482 9.18407 118.808 9.38374 120.08 9.78291C121.184 10.107 122.233 10.5944 123.193 11.2288C123.95 11.749 124.671 12.3181 125.353 12.9323C125.849 13.3582 126.303 13.8303 126.709 14.3421L127.138 14.9611L125.782 16.1269C125.706 16.0049 125.584 15.8196 125.416 15.5847C125.066 15.1504 124.685 14.7413 124.278 14.3602C123.692 13.7861 123.045 13.2784 122.348 12.8465C121.496 12.3412 120.586 11.9407 119.637 11.6536C118.514 11.287 117.339 11.1024 116.158 11.1068C114.602 11.0807 113.058 11.3763 111.622 11.975C110.186 12.5737 108.889 13.4627 107.812 14.5861C105.623 16.8694 104.4 19.9106 104.4 23.0741C104.4 26.2377 105.623 29.2789 107.812 31.5622C108.89 32.6796 110.187 33.5628 111.621 34.1568C113.055 34.7507 114.597 35.0426 116.149 35.0143C117.34 35.0201 118.525 34.8465 119.664 34.4992C120.644 34.2149 121.578 33.7935 122.439 33.2476C123.115 32.8034 123.76 32.3127 124.368 31.779C124.806 31.4053 125.214 30.9973 125.588 30.5591L125.963 30.0123L127.319 31.16C127.219 31.3091 127.066 31.517 126.867 31.779C125.801 32.9825 124.586 34.0453 123.252 34.942C121.11 36.2213 118.667 36.9089 116.172 36.9347C114.369 36.9623 112.581 36.6178 110.918 35.9227C109.255 35.2276 107.753 34.197 106.506 32.8951C103.941 30.2718 102.504 26.7482 102.504 23.0787C102.504 19.4092 103.941 15.8855 106.506 13.2622L106.484 13.2305Z" fill="#EFEFEF"/>
<path d="M132.51 28.0558C132.596 29.9597 133.417 31.756 134.801 33.0668C135.45 33.7404 136.228 34.2755 137.089 34.6397C137.951 35.0039 138.877 35.1898 139.812 35.186C140.548 35.1858 141.281 35.0778 141.985 34.8652C142.611 34.6906 143.204 34.4176 143.743 34.0563C144.17 33.769 144.578 33.4535 144.963 33.112C145.311 32.7912 145.578 32.5291 145.763 32.3303L145.989 31.9733L147.155 33.0984L146.847 33.5232C146.568 33.8453 146.266 34.1472 145.944 34.4269C145.489 34.8516 144.997 35.2357 144.475 35.5746C143.835 35.9567 143.15 36.2601 142.437 36.4783C141.591 36.7586 140.704 36.9005 139.812 36.8985C138.62 36.9021 137.441 36.6549 136.352 36.173C135.262 35.6911 134.285 34.9854 133.486 34.1015C132.605 33.2024 131.911 32.1369 131.446 30.9671C130.98 29.7972 130.752 28.5464 130.775 27.2876C130.729 24.7591 131.684 22.3147 133.432 20.4872C134.207 19.6021 135.161 18.8921 136.232 18.4044C137.302 17.9167 138.464 17.6625 139.64 17.6586C140.778 17.6465 141.905 17.8828 142.942 18.351C143.979 18.8193 144.902 19.5082 145.645 20.3698C147.29 22.1772 148.113 24.4876 148.113 27.3012V28.0693L132.51 28.0558ZM134.792 21.4858C133.438 22.75 132.622 24.4855 132.51 26.3342H146.382C146.35 24.4778 145.617 22.7021 144.331 21.3638C143.728 20.7323 143 20.2324 142.195 19.8957C141.389 19.559 140.522 19.3927 139.649 19.4073C138.741 19.4081 137.843 19.5926 137.008 19.9498C136.173 20.307 135.42 20.8295 134.792 21.4858Z" fill="#EFEFEF"/>
<path d="M155.22 21.3275C155.269 21.2236 155.342 21.0925 155.437 20.9208C155.642 20.6123 155.874 20.3234 156.132 20.0578C156.501 19.6532 156.906 19.2841 157.343 18.9553C157.898 18.5673 158.507 18.2628 159.151 18.0516C160.489 17.5988 161.927 17.5315 163.301 17.8575C164.676 18.1836 165.931 18.8896 166.923 19.8951C167.641 20.6477 168.202 21.5361 168.573 22.5083C168.944 23.4805 169.117 24.5169 169.083 25.5568V36.5368H167.334V25.5568C167.364 24.7475 167.233 23.9403 166.949 23.1818C166.665 22.4233 166.234 21.7286 165.68 21.1377C165.154 20.5758 164.516 20.1312 163.807 19.833C163.097 19.5348 162.333 19.3897 161.564 19.4071C160.722 19.3981 159.887 19.566 159.114 19.9C158.342 20.2339 157.647 20.7264 157.077 21.3456C156.461 21.9798 155.979 22.7305 155.658 23.5538C155.336 24.3771 155.183 25.2563 155.206 26.1397V36.5323H153.476V18.0516H155.206L155.22 21.3275Z" fill="#EFEFEF"/>
<path d="M177.167 11.875H178.707V18.0428H182.937V19.7734H178.707V31.9011C178.648 32.7803 178.931 33.6483 179.498 34.323C179.768 34.6072 180.095 34.8301 180.459 34.9767C180.822 35.1232 181.213 35.19 181.604 35.1725C182.017 35.1723 182.429 35.1269 182.833 35.0369C183.144 34.9794 183.447 34.8854 183.737 34.7568L184.094 34.6077V36.3337C183.32 36.7251 182.462 36.9191 181.595 36.8985C180.128 36.8985 178.989 36.4693 178.179 35.6108C177.369 34.7523 176.965 33.5157 176.968 31.9011V19.7869H173.299V18.0563H175.802C175.984 18.0597 176.165 18.0234 176.332 17.9501C176.499 17.8768 176.648 17.7681 176.769 17.6316C177.038 17.3219 177.177 16.9206 177.158 16.511L177.167 11.875Z" fill="#EFEFEF"/>
<path d="M198.128 19.4077H197.36C196.504 19.3952 195.654 19.5552 194.86 19.8781C194.067 20.201 193.347 20.6803 192.742 21.2874C192.103 21.919 191.602 22.6765 191.271 23.5118C190.939 24.3472 190.785 25.2422 190.818 26.1403V36.5328H189.087V18.0521H190.818V21.1337C190.867 21.0343 190.94 20.9033 191.03 20.7497C191.239 20.4553 191.471 20.1787 191.726 19.9228C192.101 19.5216 192.521 19.1653 192.977 18.8609C193.558 18.4941 194.188 18.2111 194.848 18.0205C195.662 17.7722 196.509 17.6488 197.36 17.6545H198.128V19.4077Z" fill="#EFEFEF"/>
<path d="M203.365 20.4597C204.2 19.5723 205.209 18.8653 206.328 18.382C207.447 17.8987 208.653 17.6494 209.871 17.6494C211.09 17.6494 212.296 17.8987 213.415 18.382C214.534 18.8653 215.543 19.5723 216.378 20.4597C218.133 22.2952 219.112 24.7366 219.112 27.2759C219.112 29.8151 218.133 32.2566 216.378 34.0921C215.543 34.9794 214.534 35.6864 213.415 36.1697C212.296 36.653 211.09 36.9023 209.871 36.9023C208.653 36.9023 207.447 36.653 206.328 36.1697C205.209 35.6864 204.2 34.9794 203.365 34.0921C201.61 32.2566 200.631 29.8151 200.631 27.2759C200.631 24.7366 201.61 22.2952 203.365 20.4597ZM215.172 21.7023C214.495 20.9742 213.676 20.3935 212.764 19.9964C211.853 19.5993 210.87 19.3943 209.876 19.3943C208.882 19.3943 207.899 19.5993 206.988 19.9964C206.076 20.3935 205.257 20.9742 204.58 21.7023C203.154 23.2121 202.36 25.2103 202.36 27.2872C202.36 29.364 203.154 31.3622 204.58 32.872C205.257 33.6001 206.076 34.1808 206.988 34.5779C207.899 34.975 208.882 35.18 209.876 35.18C210.87 35.18 211.853 34.975 212.764 34.5779C213.676 34.1808 214.495 33.6001 215.172 32.872C216.591 31.3586 217.381 29.3618 217.381 27.2872C217.381 25.2125 216.591 23.2157 215.172 21.7023Z" fill="#EFEFEF"/>
<path d="M244.307 36.9117C242.505 36.9393 240.717 36.5948 239.054 35.8997C237.391 35.2046 235.889 34.174 234.642 32.8721C232.076 30.2488 230.64 26.7251 230.64 23.0556C230.64 19.3861 232.076 15.8625 234.642 13.2392C235.907 11.9596 237.414 10.9438 239.075 10.2505C240.735 9.55718 242.517 9.2002 244.316 9.2002C246.116 9.2002 247.897 9.55718 249.558 10.2505C251.219 10.9438 252.725 11.9596 253.99 13.2392C255.285 14.5211 256.306 16.0521 256.991 17.7398C257.677 19.4274 258.014 21.2366 257.98 23.0579C257.99 24.7103 257.708 26.3514 257.149 27.9063C256.703 29.2248 256.018 30.4501 255.129 31.5211C254.393 32.3744 253.595 33.1732 252.743 33.9114C252.126 34.4639 251.454 34.9514 250.737 35.3663L249.892 35.7459C249.942 35.8453 250.023 35.9899 250.136 36.1977C250.374 36.5588 250.638 36.9016 250.927 37.2234C251.335 37.7171 251.805 38.1574 252.323 38.5338C252.984 38.9689 253.702 39.311 254.456 39.5505C255.399 39.8618 256.387 40.0145 257.379 40.0023C257.795 40.0023 258.161 40.0023 258.482 39.9662C258.696 39.961 258.908 39.9229 259.11 39.8532L259.318 39.8126V41.7329C258.684 41.8862 258.032 41.9546 257.379 41.9363C256.152 41.9462 254.931 41.7569 253.765 41.3759C252.786 41.0744 251.869 40.6034 251.053 39.9843C250.427 39.4847 249.839 38.9379 249.296 38.3486C248.907 37.9322 248.56 37.4781 248.261 36.993L247.94 36.4101C246.765 36.7741 245.538 36.9435 244.307 36.9117ZM252.648 14.5857C250.436 12.3752 247.437 11.1336 244.31 11.1336C241.182 11.1336 238.183 12.3752 235.971 14.5857C233.781 16.869 232.558 19.9102 232.558 23.0737C232.558 26.2373 233.781 29.2784 235.971 31.5617C238.183 33.7722 241.182 35.0138 244.31 35.0138C247.437 35.0138 250.436 33.7722 252.648 31.5617C254.838 29.2784 256.061 26.2373 256.061 23.0737C256.061 19.9102 254.838 16.869 252.648 14.5857Z" fill="#EFEFEF"/>
<path d="M277.627 33.2653L277.419 33.672C277.221 33.9833 276.991 34.2726 276.732 34.5351C276.367 34.9389 275.961 35.3038 275.521 35.624C274.964 36.0093 274.356 36.3135 273.714 36.5277C272.925 36.8024 272.095 36.9385 271.26 36.9299C270.262 36.9532 269.27 36.767 268.349 36.3833C267.427 35.9996 266.597 35.4269 265.91 34.7022C265.194 33.9509 264.635 33.0645 264.266 32.0947C263.897 31.1249 263.724 30.0912 263.759 29.0541V18.0741H265.49V29.0451C265.461 29.8543 265.592 30.6613 265.876 31.4197C266.16 32.178 266.59 32.8729 267.144 33.4642C267.669 34.0261 268.308 34.4706 269.017 34.7689C269.726 35.0671 270.491 35.2122 271.26 35.1948C272.103 35.2029 272.938 35.0337 273.711 34.6982C274.484 34.3626 275.177 33.8683 275.747 33.2473C276.364 32.6137 276.848 31.8632 277.171 31.0399C277.493 30.2166 277.648 29.3372 277.627 28.4531V18.0605H279.375V36.5413H277.627V33.2653Z" fill="#EFEFEF"/>
<path d="M286.081 10.5419C286.205 10.4153 286.354 10.3158 286.519 10.2497C286.684 10.1836 286.861 10.1523 287.038 10.1578C287.216 10.1532 287.392 10.1848 287.557 10.2509C287.722 10.3169 287.871 10.4159 287.996 10.5419C288.123 10.6692 288.223 10.821 288.289 10.988C288.355 11.1551 288.386 11.3339 288.38 11.5134C288.386 11.6909 288.355 11.8677 288.289 12.0325C288.222 12.1974 288.123 12.3468 287.996 12.4713C287.87 12.5944 287.72 12.6909 287.555 12.7553C287.391 12.8197 287.215 12.8507 287.038 12.8464C286.862 12.8514 286.686 12.8208 286.521 12.7564C286.357 12.692 286.207 12.595 286.081 12.4713C285.953 12.347 285.853 12.1977 285.786 12.0329C285.719 11.8681 285.687 11.6912 285.692 11.5134C285.687 11.3335 285.719 11.1546 285.786 10.9875C285.853 10.8204 285.953 10.6688 286.081 10.5419ZM286.081 18.0562H287.811V36.5369H286.081V18.0562Z" fill="#EFEFEF"/>
<path d="M303.762 19.4077H302.99C302.134 19.3955 301.284 19.5557 300.492 19.8786C299.699 20.2016 298.98 20.6806 298.376 21.2874C297.735 21.9181 297.233 22.6753 296.901 23.5108C296.569 24.3463 296.414 25.2418 296.447 26.1403V36.5328H294.721V18.0521H296.447V21.1337C296.496 21.0343 296.569 20.9033 296.664 20.7497C296.871 20.4541 297.104 20.1774 297.36 19.9228C297.734 19.5216 298.154 19.1653 298.611 18.8609C299.192 18.4933 299.821 18.2103 300.482 18.0205C301.294 17.7723 302.14 17.6489 302.99 17.6545H303.762V19.4077Z" fill="#EFEFEF"/>
<path d="M321.664 33.2658C321.61 33.3652 321.542 33.5008 321.456 33.6725C321.257 33.9826 321.027 34.2718 320.77 34.5355C320.404 34.9405 319.997 35.3056 319.554 35.6245C318.998 36.0102 318.389 36.3145 317.747 36.5282C316.958 36.8029 316.128 36.939 315.293 36.9303C314.295 36.954 313.303 36.7679 312.382 36.3842C311.46 36.0005 310.63 35.4276 309.943 34.7027C309.227 33.9514 308.669 33.065 308.299 32.0952C307.93 31.1254 307.758 30.0917 307.792 29.0546V18.0746H309.523V29.0455C309.494 29.8547 309.625 30.6617 309.909 31.4201C310.193 32.1785 310.624 32.8733 311.177 33.4646C311.703 34.0265 312.341 34.4711 313.05 34.7693C313.76 35.0675 314.524 35.2127 315.293 35.1952C316.136 35.203 316.971 35.0337 317.744 34.6982C318.517 34.3627 319.21 33.8686 319.78 33.2477C320.394 32.6145 320.876 31.8651 321.197 31.0435C321.518 30.2219 321.673 29.3445 321.651 28.4626V18.07H323.399V36.5508H321.651L321.664 33.2658ZM317.43 9.76953H319.554L316.079 14.7715H314.534L317.43 9.76953Z" fill="#EFEFEF"/>
<path d="M339.169 19.4077H338.396C337.54 19.3951 336.691 19.555 335.898 19.8779C335.105 20.2009 334.386 20.6802 333.783 21.2874C333.141 21.9178 332.638 22.6748 332.305 23.5103C331.972 24.3458 331.817 25.2415 331.849 26.1403V36.5329H330.118V18.0521H331.849V21.1338C331.898 21.0343 331.971 20.9033 332.066 20.7497C332.273 20.4541 332.506 20.1774 332.762 19.9228C333.6 19.0041 334.683 18.3441 335.884 18.0205C336.696 17.772 337.542 17.6486 338.392 17.6545H339.164L339.169 19.4077Z" fill="#EFEFEF"/>
<path d="M357.067 32.308C357.017 32.4074 356.936 32.5475 356.823 32.7327C356.581 33.0575 356.31 33.36 356.014 33.6364C355.603 34.0643 355.148 34.4489 354.659 34.7841C354.053 35.1747 353.4 35.4875 352.716 35.7149C351.899 36.0118 351.036 36.1647 350.167 36.1668C349.042 36.162 347.932 35.9177 346.909 35.4503C345.886 34.9828 344.974 34.3029 344.234 33.4557C342.599 31.6655 341.692 29.3285 341.692 26.9038C341.692 24.4792 342.599 22.1422 344.234 20.352C345.271 19.1791 346.629 18.3367 348.14 17.9294C349.651 17.5221 351.248 17.5679 352.734 18.0611C353.433 18.278 354.093 18.6044 354.69 19.028C355.163 19.3751 355.616 19.7493 356.046 20.1486C356.367 20.4309 356.64 20.7636 356.855 21.1337L357.117 21.5087V18.0521H358.865V35.3715C358.891 36.5808 358.674 37.783 358.227 38.9069C357.78 40.0307 357.112 41.0534 356.263 41.9143C355.465 42.78 354.495 43.4686 353.415 43.9356C352.334 44.4026 351.168 44.6376 349.991 44.6254C349.091 44.6312 348.196 44.4955 347.339 44.2233C346.608 44.0049 345.912 43.6823 345.274 43.2654C344.771 42.9244 344.293 42.55 343.841 42.1448C343.508 41.8575 343.212 41.5296 342.96 41.1688L342.675 40.7712L343.841 39.628L344.085 39.9759C344.318 40.2555 344.57 40.5182 344.84 40.7621C345.222 41.1275 345.633 41.4615 346.069 41.7607C346.607 42.1018 347.189 42.3679 347.799 42.5515C348.507 42.7805 349.247 42.8979 349.991 42.8994C350.935 42.909 351.87 42.7206 352.736 42.3462C353.602 41.9718 354.38 41.4198 355.02 40.726C355.708 40.0222 356.248 39.1879 356.608 38.2721C356.968 37.3564 357.141 36.3778 357.117 35.3941L357.067 32.308ZM345.441 32.2086C346.023 32.8896 346.745 33.4377 347.557 33.8157C348.369 34.1938 349.253 34.3931 350.149 34.4C351.059 34.3918 351.956 34.1924 352.784 33.8149C353.611 33.4374 354.35 32.8901 354.952 32.2086C356.31 30.7807 357.067 28.8856 357.067 26.9151C357.067 24.9447 356.31 23.0496 354.952 21.6217C354.352 20.9369 353.613 20.3862 352.786 20.0055C351.958 19.6248 351.06 19.4226 350.149 19.4121C349.255 19.4215 348.373 19.6219 347.563 19.9999C346.752 20.3778 346.032 20.9246 345.45 21.6036C344.133 23.0592 343.403 24.9521 343.403 26.9151C343.403 28.8781 344.133 30.7711 345.45 32.2266L345.441 32.2086Z" fill="#EFEFEF"/>
<path d="M365.738 10.5419C365.862 10.4153 366.012 10.3158 366.177 10.2497C366.341 10.1836 366.518 10.1523 366.696 10.1578C366.873 10.1532 367.05 10.1848 367.214 10.2509C367.379 10.3169 367.528 10.4159 367.654 10.5419C367.78 10.6692 367.88 10.821 367.946 10.988C368.012 11.1551 368.043 11.3339 368.038 11.5134C368.043 11.6909 368.012 11.8677 367.946 12.0325C367.88 12.1974 367.78 12.3468 367.654 12.4713C367.527 12.5944 367.377 12.6909 367.212 12.7553C367.048 12.8197 366.872 12.8507 366.696 12.8464C366.519 12.8514 366.343 12.8208 366.178 12.7564C366.014 12.692 365.864 12.595 365.738 12.4713C365.61 12.347 365.51 12.1977 365.443 12.0329C365.377 11.8681 365.344 11.6912 365.349 11.5134C365.344 11.3335 365.376 11.1546 365.443 10.9875C365.51 10.8204 365.61 10.6688 365.738 10.5419ZM365.738 18.0562H367.464V36.5369H365.738V18.0562Z" fill="#EFEFEF"/>
<path d="M375.543 20.46C376.342 19.5753 377.318 18.868 378.408 18.3839C379.497 17.8998 380.677 17.6496 381.869 17.6495C382.752 17.6463 383.631 17.7836 384.472 18.0561C385.203 18.2743 385.897 18.6002 386.532 19.0231C387.034 19.3704 387.516 19.7444 387.978 20.1437C388.328 20.4239 388.633 20.7561 388.882 21.1287L389.202 21.5038L387.847 22.6695L387.612 22.3216C387.396 22.0405 387.157 21.7776 386.898 21.5354C386.531 21.1673 386.132 20.8331 385.705 20.5368C385.186 20.1992 384.624 19.9332 384.033 19.7461C382.76 19.3245 381.391 19.2851 380.096 19.6328C378.801 19.9805 377.636 20.7001 376.745 21.7026C375.334 23.22 374.549 25.2153 374.549 27.2875C374.549 29.3596 375.334 31.3549 376.745 32.8723C377.387 33.5948 378.175 34.1735 379.056 34.5706C379.938 34.9677 380.893 35.1743 381.86 35.1768C383.009 35.1903 384.143 34.9054 385.149 34.3499C385.952 33.9468 386.668 33.3894 387.255 32.7097L387.838 31.9054L389.193 33.0666L388.882 33.4914C388.604 33.8151 388.302 34.1173 387.978 34.3951C387.523 34.8198 387.031 35.2039 386.509 35.5428C385.867 35.9249 385.182 36.2283 384.467 36.4465C383.622 36.7268 382.737 36.8687 381.846 36.8667C380.648 36.8722 379.463 36.6246 378.367 36.1403C377.272 35.656 376.291 34.9458 375.489 34.0562C373.757 32.2088 372.794 29.7719 372.794 27.24C372.794 24.7082 373.757 22.2712 375.489 20.4238L375.543 20.46Z" fill="#EFEFEF"/>
<path d="M395.398 20.4603C396.233 19.5731 397.241 18.8661 398.359 18.3829C399.478 17.8997 400.683 17.6504 401.902 17.6504C403.12 17.6504 404.326 17.8997 405.445 18.3829C406.563 18.8661 407.571 19.5731 408.406 20.4603C410.163 22.2947 411.144 24.7366 411.144 27.2765C411.144 29.8164 410.163 32.2583 408.406 34.0927C407.571 34.9799 406.563 35.6869 405.445 36.1701C404.326 36.6533 403.12 36.9026 401.902 36.9026C400.683 36.9026 399.478 36.6533 398.359 36.1701C397.241 35.6869 396.233 34.9799 395.398 34.0927C393.641 32.2583 392.66 29.8164 392.66 27.2765C392.66 24.7366 393.641 22.2947 395.398 20.4603ZM407.204 21.7029C406.528 20.9741 405.708 20.3928 404.796 19.9953C403.885 19.5977 402.901 19.3926 401.906 19.3926C400.912 19.3926 399.928 19.5977 399.017 19.9953C398.105 20.3928 397.285 20.9741 396.609 21.7029C395.182 23.2127 394.388 25.2109 394.388 27.2878C394.388 29.3647 395.182 31.3629 396.609 32.8727C397.285 33.6015 398.105 34.1828 399.017 34.5803C399.928 34.9779 400.912 35.1831 401.906 35.1831C402.901 35.1831 403.885 34.9779 404.796 34.5803C405.708 34.1828 406.528 33.6015 407.204 32.8727C408.624 31.3593 409.413 29.3624 409.413 27.2878C409.413 25.2132 408.624 23.2163 407.204 21.7029Z" fill="#EFEFEF"/>
<path d="M102.48 82.9739V45.1494H105.192V80.2854H125.453V82.9965L102.48 82.9739Z" fill="#EFEFEF"/>
<path d="M135.691 71.899L131.1 82.9739H128.118L143.788 45.1494H146.499L162.143 82.9739H159.187L154.597 71.899H135.691ZM145.135 48.9495L136.771 69.206H153.521L145.135 48.9495Z" fill="#EFEFEF"/>
<path d="M192.905 45.1494C196.402 45.1494 199.303 46.267 201.607 48.5021C202.702 49.5828 203.572 50.8703 204.165 52.2898C204.759 53.7092 205.065 55.2325 205.065 56.771C205.065 58.3096 204.759 59.8328 204.165 61.2523C203.572 62.6718 202.702 63.9592 201.607 65.0399C199.303 67.2721 196.402 68.3881 192.905 68.3881H182.114V82.9739H179.403V45.1494H192.905ZM182.114 47.8605V65.6906H192.905C195.715 65.6906 197.996 64.8501 199.746 63.1693C201.428 61.463 202.372 59.1629 202.372 56.7665C202.372 54.3701 201.428 52.07 199.746 50.3638C197.999 48.6919 195.718 47.8575 192.905 47.8605H182.114Z" fill="#EFEFEF"/>
<path d="M213.689 71.899L209.098 82.9739H206.116L221.786 45.1494H224.498L240.141 82.9739H237.186L232.595 71.899H213.689ZM223.128 48.9495L214.769 69.206H231.537L223.128 48.9495Z" fill="#EFEFEF"/>
<path d="M263.912 68.4553C262.343 67.2369 260.557 66.3276 258.648 65.7758C256.576 65.1432 254.505 64.476 252.435 63.7741C250.437 63.112 248.631 61.9702 247.176 60.4485C245.73 58.9423 245.008 56.9994 245.011 54.6196C245.002 53.268 245.293 51.9312 245.863 50.7058C246.434 49.4804 247.269 48.3972 248.31 47.5346C250.506 45.5976 253.368 44.6261 256.895 44.6201C259.266 44.6329 261.603 45.1878 263.727 46.2423C264.471 46.6407 265.189 47.0843 265.878 47.5707C266.374 47.908 266.829 48.3023 267.233 48.7455L267.654 49.1974L265.783 51.0952C265.676 50.9498 265.556 50.8138 265.426 50.6885C265.259 50.5213 264.897 50.2367 264.346 49.7848C263.786 49.3491 263.19 48.9607 262.566 48.6235C261.772 48.228 260.935 47.9248 260.072 47.7198C259.026 47.4466 257.949 47.3099 256.868 47.3132C253.982 47.3132 251.723 47.9985 250.09 49.3691C249.313 50.0018 248.69 50.8037 248.27 51.7136C247.849 52.6235 247.642 53.6174 247.664 54.6196C247.642 55.4888 247.825 56.351 248.199 57.1361C248.573 57.9211 249.126 58.607 249.815 59.1381C251.382 60.3589 253.169 61.2684 255.079 61.8176C257.151 62.4502 259.221 63.1174 261.287 63.8193C263.288 64.4802 265.095 65.6222 266.551 67.1449C267.278 67.9261 267.843 68.8432 268.215 69.8435C268.586 70.8438 268.756 71.9076 268.716 72.9738C268.763 74.4024 268.493 75.8237 267.924 77.135C267.355 78.4462 266.502 79.6147 265.426 80.5559C263.194 82.535 260.17 83.5246 256.353 83.5246C254.839 83.5281 253.332 83.329 251.871 82.9326C250.636 82.619 249.447 82.1483 248.333 81.5319C247.486 81.042 246.675 80.4924 245.906 79.8872C245.358 79.4727 244.862 78.9932 244.429 78.4593L243.918 77.8448L245.816 75.9741C245.92 76.1661 246.044 76.3463 246.186 76.5118C246.559 76.9295 246.964 77.3177 247.397 77.6731C248.039 78.2352 248.737 78.7303 249.48 79.1506C250.421 79.6528 251.417 80.0426 252.449 80.3119C253.716 80.6616 255.025 80.8349 256.339 80.827C259.472 80.827 261.882 80.1146 263.569 78.6897C264.394 77.9936 265.049 77.1187 265.485 76.1314C265.921 75.1441 266.127 74.0704 266.086 72.9919C266.11 72.1175 265.925 71.2499 265.547 70.461C265.169 69.6721 264.609 68.9846 263.912 68.4553Z" fill="#EFEFEF"/>
<path d="M299.257 45.1494V47.8605H286.835V82.9649H284.124V47.8695H271.698V45.1584L299.257 45.1494Z" fill="#EFEFEF"/>
<path d="M334.18 77.8452C332.406 79.6413 330.293 81.0673 327.963 82.0406C325.633 83.0139 323.134 83.5151 320.609 83.5151C318.084 83.5151 315.585 83.0139 313.255 82.0406C310.925 81.0673 308.812 79.6413 307.038 77.8452C303.437 74.1669 301.421 69.2245 301.421 64.0773C301.421 58.9301 303.437 53.9877 307.038 50.3094C308.811 48.5116 310.924 47.0841 313.254 46.1098C315.584 45.1355 318.084 44.6338 320.609 44.6338C323.134 44.6338 325.634 45.1355 327.964 46.1098C330.294 47.0841 332.407 48.5116 334.18 50.3094C337.767 53.995 339.774 58.9346 339.774 64.0773C339.774 69.22 337.767 74.1596 334.18 77.8452ZM332.301 52.1529C329.196 49.0543 324.989 47.314 320.602 47.314C316.216 47.314 312.008 49.0543 308.904 52.1529C305.708 55.3792 304.111 59.3494 304.114 64.0637C304.117 68.7781 305.714 72.7483 308.904 75.9745C312.008 79.0732 316.216 80.8135 320.602 80.8135C324.989 80.8135 329.196 79.0732 332.301 75.9745C335.491 72.7423 337.086 68.772 337.086 64.0637C337.086 59.3554 335.491 55.3852 332.301 52.1529Z" fill="#EFEFEF"/>
<path d="M363.248 45.1494C366.589 45.1494 369.358 46.2143 371.557 48.344C372.627 49.3551 373.474 50.5791 374.042 51.9371C374.61 53.2951 374.887 54.7571 374.856 56.2288C374.878 57.7658 374.586 59.291 373.997 60.7112C373.539 61.8843 372.823 62.9391 371.901 63.7973C371.136 64.4744 370.31 65.0794 369.434 65.6047C368.79 66.0115 368.094 66.3292 367.364 66.5491L366.492 66.7841L375.678 82.9739H372.696L363.781 67.3082H351.64V82.9739H348.929V45.1494H363.248ZM351.64 47.8605V64.6061H363.248C365.923 64.6061 368.077 63.8244 369.709 62.261C371.283 60.649 372.163 58.4858 372.163 56.2333C372.163 53.9809 371.283 51.8177 369.709 50.2056C368.074 48.6422 365.92 47.8605 363.248 47.8605H351.64Z" fill="#EFEFEF"/>
<path d="M387.544 71.899L382.953 82.9739H379.971L395.641 45.1494H398.352L413.995 82.9739H411.04L406.449 71.899H387.544ZM396.983 48.9495L388.624 69.206H405.374L396.983 48.9495Z" fill="#EFEFEF"/>
</g>
<defs>
<clipPath id="clip0_246_9949">
<rect width="414" height="92.4579" fill="white" transform="translate(0 0.271484)"/>
</clipPath>
</defs>
</svg>
