<svg width="260" height="127" viewBox="0 0 260 127" fill="none" xmlns="http://www.w3.org/2000/svg">
<g clip-path="url(#clip0_246_10018)">
<path fill-rule="evenodd" clip-rule="evenodd" d="M118.497 95.2188H128.399L122.521 126.379H112.623L118.497 95.2188Z" fill="#EFEFEF"/>
<path fill-rule="evenodd" clip-rule="evenodd" d="M132.459 95.1533H145.139L151.091 110.51L153.896 95.1533H164.198L158.268 126.374H148.183L140.366 108.455L137.022 126.374H126.532L132.459 95.1533Z" fill="#EFEFEF"/>
<path fill-rule="evenodd" clip-rule="evenodd" d="M92.2834 0.5C88.6692 8.91448 81.5191 14.4401 84.5498 23.1544C87.8941 29.4533 95.0311 28.8017 98.4842 25.1613C100.6 22.9328 100.827 19.2013 100.431 16.3429C99.5597 9.82674 94.4519 6.38623 92.2877 0.5H92.2834ZM97.2997 19.0622C98.1227 19.2577 98.519 20.5783 98.1706 21.9988C97.8223 23.4194 96.8643 24.4315 96.05 24.2404C95.2357 24.0492 94.8351 22.7286 95.1791 21.3038C95.5231 19.8789 96.4854 18.8711 97.3041 19.0622" fill="#EFEFEF"/>
<path fill-rule="evenodd" clip-rule="evenodd" d="M91.3087 46.5864C106.61 49.8358 118.402 55.2268 117.592 58.5891C116.782 61.9515 103.658 62.0427 88.3738 58.7933C73.0895 55.5439 61.2802 50.1486 62.0858 46.7906C62.8913 43.4326 76.0201 43.3154 91.3087 46.5864ZM90.5336 50.7481C85.3866 49.5491 80.9319 49.6577 80.6141 50.9913C80.2962 52.325 84.2196 54.3927 89.3579 55.5917C94.4961 56.7907 98.9377 56.6864 99.273 55.3484C99.6083 54.0105 95.6762 51.9557 90.5336 50.7481Z" fill="#EFEFEF"/>
<path fill-rule="evenodd" clip-rule="evenodd" d="M92.2745 38.124C138.728 47.9981 174.731 63.8714 172.423 73.4674C170.115 83.0635 130.35 82.8376 83.9009 72.9722C37.4517 63.1068 1.45754 47.2248 3.75235 37.6331C6.04716 28.0414 45.8253 28.2543 92.2745 38.124ZM91.2687 39.5967C59.7858 32.7243 32.7575 32.6461 31.1202 39.4663C29.483 46.2865 53.8332 57.4247 85.3248 64.3058C116.816 71.1868 143.84 71.2563 145.478 64.4317C147.115 57.6072 122.769 46.4733 91.2687 39.5967Z" fill="#EFEFEF"/>
<path fill-rule="evenodd" clip-rule="evenodd" d="M0.5 126.374L9.32217 79.627H32.1658C39.3942 79.627 43.7138 79.7269 45.116 79.8572C48.1641 80.1526 50.9989 82.1074 51.4996 85.2482C52.327 90.3525 50.6897 101.552 44.0491 102.529C46.2264 104.892 48.5952 104.345 46.4223 115.47C46.209 116.591 45.6385 118.884 44.9418 122.499L44.1928 126.374H29.8231L32.3922 112.764C33.102 108.967 33.1673 109.41 30.3935 109.358H18.3795L15.1702 126.382L0.5 126.374ZM20.3085 98.9233H32.009C34.2124 98.9233 35.031 98.8669 35.2836 97.5376L35.8497 94.5489C36.1588 92.8851 35.7887 92.6375 33.1716 92.6375H27.8156H21.4886L20.3085 98.9233Z" fill="#EFEFEF"/>
<path fill-rule="evenodd" clip-rule="evenodd" d="M78.5584 118.585L98.2102 118.416C101.467 118.385 101.132 117.855 101.507 116.648C102.295 114.119 100.714 114.536 98.3147 114.532L85.064 114.484C83.6227 114.484 82.6821 113.129 82.3729 111.878C81.3496 107.86 82.9739 101.739 84.7635 98.4112C85.271 97.5325 85.9994 96.8011 86.8768 96.2891C87.7543 95.7772 88.7504 95.5024 89.7668 95.492H112.131L110.446 103.416L93.6902 103.381C92.3142 103.381 92.1226 104.085 92.1313 105.223C92.14 106.361 91.7655 107.182 93.3767 107.182H99.4338C103.597 107.182 104.838 107.091 106.222 107.182C110.633 107.508 111.291 110.457 110.86 113.333L109.51 122.347C109.179 124.628 106.357 126.591 102.382 126.478L94.3216 126.239C90.4287 126.131 77.6788 126.626 75.863 126.391V126.357H48.5996L54.2604 95.2227L81.0231 95.3226L79.6645 103.285L63.0565 103.198L62.2378 107.108L77.7877 107.208L76.5031 114.975L60.9533 114.88L60.3436 118.542L78.5584 118.585Z" fill="#EFEFEF"/>
<path fill-rule="evenodd" clip-rule="evenodd" d="M205.566 95.1532H223.798C227.12 95.1532 229.367 97.3948 228.858 100.14L227.477 107.556C227.425 107.823 227.351 108.086 227.255 108.342L223.732 126.378H214.453L216.669 114.215H205.905L203.358 126.378H197.262L170.212 126.439C168.148 126.439 166.362 126.257 165.422 125.605C164.551 125.027 164.307 123.733 163.954 122.755C161.864 116.978 164.268 104.662 167.233 99.7101C168.365 97.8118 170.072 95.4877 172.432 95.2879H195.881L194.318 103.589L176.9 103.672C176.195 103.672 175.764 104.814 175.411 105.883C174.381 109.166 173.715 112.551 173.425 115.979C173.268 117.517 173.569 118.038 175.328 118.033L195.071 117.977L197.871 103.642H197.902L198.559 100.132C199.069 97.3861 202.243 95.1445 205.566 95.1445V95.1532ZM216.369 107.677C216.625 107.672 216.873 107.585 217.075 107.429C217.278 107.272 217.424 107.055 217.492 106.808L218.059 104.128C218.085 104.018 218.086 103.903 218.06 103.793C218.034 103.682 217.983 103.579 217.91 103.492C217.837 103.405 217.745 103.337 217.641 103.292C217.536 103.247 217.423 103.227 217.31 103.233H208.731C208.471 103.239 208.22 103.33 208.017 103.492C207.813 103.653 207.668 103.877 207.603 104.128L207.042 106.808C207.018 106.917 207.02 107.03 207.047 107.137C207.074 107.245 207.126 107.345 207.199 107.429C207.271 107.514 207.363 107.58 207.465 107.623C207.568 107.666 207.68 107.684 207.791 107.677H216.369Z" fill="#EFEFEF"/>
<path d="M258.677 74.6707H250.43L251.588 66.4561C251.61 66.3385 251.604 66.2176 251.573 66.1022C251.542 65.9869 251.485 65.8799 251.407 65.7892C251.329 65.6985 251.232 65.6263 251.122 65.5778C251.013 65.5293 250.894 65.5059 250.774 65.5091H242.64C242.377 65.5169 242.126 65.6158 241.929 65.7886C241.732 65.9615 241.601 66.1975 241.56 66.4561L240.402 74.6794H232.154C231.892 74.6873 231.64 74.7861 231.443 74.959C231.246 75.1319 231.116 75.3679 231.074 75.6264L231.009 76.0999L230.965 76.4171L229.933 83.7368L229.872 84.1712C229.851 84.2886 229.856 84.4094 229.887 84.5245C229.919 84.6397 229.976 84.7464 230.054 84.8368C230.132 84.9272 230.229 84.999 230.339 85.047C230.448 85.0949 230.567 85.1178 230.687 85.1139H238.93L237.906 92.2425L237.754 93.3372C237.733 93.4549 237.738 93.5757 237.769 93.6911C237.8 93.8065 237.857 93.9134 237.935 94.0041C238.013 94.0949 238.111 94.1671 238.22 94.2155C238.33 94.264 238.449 94.2875 238.568 94.2843H246.703C246.965 94.2764 247.216 94.1776 247.413 94.0047C247.61 93.8318 247.741 93.5958 247.782 93.3372L247.843 92.9028L248.941 85.1096H257.188C257.45 85.1013 257.701 85.0029 257.899 84.8311C258.096 84.6593 258.228 84.4246 258.272 84.1669L258.329 83.7325L258.851 80.04L259.043 78.6586L259.313 76.7255L259.474 75.6177C259.496 75.5001 259.49 75.3793 259.459 75.2639C259.428 75.1485 259.371 75.0416 259.293 74.9509C259.215 74.8601 259.118 74.7879 259.008 74.7395C258.899 74.691 258.78 74.6675 258.66 74.6707" fill="#EFEFEF"/>
<path d="M234.858 91.1734C234.708 90.6011 234.407 90.0792 233.987 89.6616C233.783 89.4545 233.552 89.2762 233.299 89.1317C233.036 88.981 232.753 88.867 232.459 88.7928C232.145 88.7097 231.821 88.6688 231.496 88.6712C231.02 88.6651 230.548 88.7552 230.107 88.9362C229.7 89.1012 229.33 89.3473 229.021 89.6595C228.712 89.9716 228.469 90.3434 228.309 90.752C228.141 91.1795 228.057 91.6352 228.061 92.0943C228.057 92.5548 228.141 93.0118 228.309 93.441C228.471 93.8491 228.712 94.2211 229.019 94.5357C229.328 94.8514 229.698 95.1011 230.107 95.2698C231.001 95.6288 232 95.6288 232.894 95.2698C233.306 95.1033 233.678 94.8533 233.987 94.5357C234.295 94.2213 234.538 93.8493 234.701 93.441C234.981 92.7176 235.03 91.9255 234.841 91.1734H234.858ZM234.022 93.2498C233.901 93.5796 233.716 93.8822 233.478 94.1404C233.231 94.3893 232.934 94.5832 232.607 94.7095C232.248 94.8439 231.867 94.9102 231.483 94.9049C231.103 94.9098 230.725 94.8435 230.369 94.7095C230.047 94.5836 229.758 94.3894 229.519 94.1404C229.279 93.8842 229.095 93.5809 228.979 93.2498C228.85 92.8785 228.787 92.4874 228.792 92.0943C228.786 91.7011 228.849 91.31 228.979 90.9388C229.097 90.615 229.281 90.3191 229.519 90.07C229.758 89.821 230.047 89.6268 230.369 89.5009C230.724 89.3628 231.102 89.295 231.483 89.3011C231.867 89.2949 232.249 89.3628 232.607 89.5009C232.934 89.6272 233.231 89.8211 233.478 90.07C233.715 90.3208 233.9 90.6161 234.022 90.9388C234.157 91.3089 234.224 91.7005 234.218 92.0943C234.223 92.4881 234.156 92.8795 234.022 93.2498Z" fill="#EFEFEF"/>
<path d="M232.799 92.2295C232.885 92.1645 232.958 92.0851 233.017 91.9949C233.074 91.9093 233.118 91.8156 233.147 91.7169C233.177 91.6182 233.191 91.5157 233.191 91.4128C233.195 91.2646 233.17 91.117 233.117 90.9784C233.066 90.847 232.988 90.7283 232.886 90.6309C232.777 90.5229 232.646 90.4386 232.503 90.3832C232.335 90.3219 232.158 90.291 231.98 90.292H229.772V93.8933H230.939V92.59H231.375L232.015 93.8933H233.321L232.52 92.3859C232.631 92.3471 232.734 92.2898 232.825 92.2164L232.799 92.2295ZM232.015 91.5779C231.997 91.6182 231.972 91.655 231.941 91.6865C231.912 91.7159 231.878 91.7395 231.841 91.756C231.801 91.7733 231.758 91.7822 231.715 91.782H230.939V91.1304H231.701C231.744 91.1309 231.787 91.1383 231.828 91.1521C231.864 91.1687 231.898 91.1907 231.928 91.2173C231.959 91.2488 231.984 91.2856 232.002 91.3259C232.037 91.4109 232.037 91.5059 232.002 91.5909" fill="#EFEFEF"/>
</g>
<defs>
<clipPath id="clip0_246_10018">
<rect width="259" height="126" fill="white" transform="translate(0.5 0.5)"/>
</clipPath>
</defs>
</svg>
