<svg width="375" height="94" viewBox="0 0 375 94" fill="none" xmlns="http://www.w3.org/2000/svg">
<mask id="path-1-inside-1_368_23156" fill="white">
<path d="M27.5047 25.0919L9.3271 0.606083H3.6083V43.638H9.66751C9.66751 20.7887 9.66751 12.6065 9.19094 9.03065L27.5047 33.8801L45.8186 9.03065C45.342 12.5459 45.342 20.4856 45.342 43.638H51.4012V0.606083H45.6824L27.5047 25.0919ZM100.307 43.638L82.8105 0.606083H75.9343L58.5736 43.638H64.8371L69.1943 32.3649H89.3463C90.6398 35.6983 92.0695 39.3955 93.7716 43.638H100.307ZM70.9644 27.8799C77.6363 10.5459 78.6576 7.09118 79.1341 4.12137C79.6107 7.09118 80.7681 10.4852 87.5762 27.8799H70.9644ZM140.956 43.638C128.157 31.88 123.595 27.5768 121.212 25.5767H124.957C132.99 25.5767 140.479 21.516 140.479 13.0914C140.479 5.57597 134.488 0.606083 124.412 0.606083H107.392V43.638H113.451C113.451 34.5468 113.451 28.3647 112.975 23.9403L133.467 43.638H140.956ZM134.42 13.5157C134.42 18.2431 130.744 21.6372 123.731 21.6372H113.451V5.51536H123.731C130.744 5.51536 134.42 8.84882 134.42 13.5157ZM175.5 0.666691L154.599 20.3038C154.872 15.4551 154.872 11.2126 154.872 0.606083H148.812V43.638H154.872C154.872 32.6073 154.872 27.8192 154.599 22.3039L175.16 43.638H182.581L160.999 21.3948L182.717 0.606083L175.5 0.666691ZM218.705 0.606083H189.634V43.638H218.705V38.7288H195.694V24.1221H214.212V19.3341H195.694V5.51536H218.705V0.606083ZM243.005 43.638V5.51536H256.553V0.606083H223.397V5.51536H236.877V43.638H243.005ZM269.958 43.638V0.606083H263.899V43.638H269.958ZM313.601 0.606083C313.601 25.6373 313.669 32.2437 314.01 35.3347L286.505 0.606083H280.786V43.638H286.777C286.777 18.8492 286.709 12.1823 286.369 9.15187L313.873 43.638H319.592V0.606083H313.601ZM347.27 25.3343H369.6C368.307 33.577 361.431 39.2742 351.967 39.2742C341.211 39.2742 333.858 32.0012 333.858 22.1827C333.858 12.2429 341.551 4.96989 352.512 4.96989C359.661 4.96989 365.175 8.12152 367.694 12.0611L372.119 8.667C368.647 3.6365 361.158 0 352.308 0C337.875 0 327.799 9.63673 327.799 22.1221C327.799 34.6074 337.807 44.2441 352.035 44.2441C365.788 44.2441 376 35.2741 376 20.5462H347.27V25.3343ZM41.7337 93.3939L24.2369 50.362H17.3607L0 93.3939H6.26346L10.6206 82.1208H30.7726C32.0662 85.4542 33.4959 89.1513 35.1979 93.3939H41.7337ZM12.3908 77.6357C19.0627 60.3017 20.0839 56.8471 20.5605 53.8773C21.037 56.8471 22.1944 60.2411 29.0025 77.6357H12.3908ZM63.4436 75.0902H85.7742C84.4806 83.3329 77.6044 89.0301 68.1412 89.0301C57.3844 89.0301 50.0316 81.7571 50.0316 71.9386C50.0316 61.9988 57.7248 54.7258 68.6858 54.7258C75.8343 54.7258 81.3489 57.8774 83.8679 61.817L88.2932 58.4229C84.821 53.3924 77.3321 49.7559 68.4816 49.7559C54.0484 49.7559 43.9724 59.3926 43.9724 71.8779C43.9724 84.3633 53.9803 94 68.2092 94C81.9616 94 92.1738 85.03 92.1738 70.3021H63.4436V75.0902ZM129.282 50.362H100.212V93.3939H129.282V88.4846H106.271V73.878H124.789V69.09H106.271V55.2712H129.282V50.362ZM170.126 50.362C170.126 75.3932 170.194 81.9995 170.534 85.0906L143.029 50.362H137.31V93.3939H143.302C143.302 68.6051 143.234 61.9382 142.893 58.9077L170.398 93.3939H176.117V50.362H170.126ZM208.424 94C215.3 94 219.998 92.0605 222.721 90.0605V84.6663C220.27 86.727 215.981 89.0907 209.173 89.0907C198.688 89.0907 190.382 81.5753 190.382 71.8779C190.382 62.1806 198.62 54.6652 209.173 54.6652C215.981 54.6652 220.202 57.0289 222.721 59.0896V53.6954C219.998 51.6954 215.3 49.7559 208.424 49.7559C194.876 49.7559 184.323 59.5138 184.323 71.8779C184.323 84.2421 194.876 94 208.424 94ZM259.44 50.362C250.453 63.817 247.73 68.302 246.504 71.2719C245.279 68.2414 242.624 63.7564 233.569 50.362H226.625L243.373 75.2114V93.3939H249.5V75.2114L266.248 50.362H259.44Z"/>
</mask>
<path d="M27.5047 25.0919L9.3271 0.606083H3.6083V43.638H9.66751C9.66751 20.7887 9.66751 12.6065 9.19094 9.03065L27.5047 33.8801L45.8186 9.03065C45.342 12.5459 45.342 20.4856 45.342 43.638H51.4012V0.606083H45.6824L27.5047 25.0919ZM100.307 43.638L82.8105 0.606083H75.9343L58.5736 43.638H64.8371L69.1943 32.3649H89.3463C90.6398 35.6983 92.0695 39.3955 93.7716 43.638H100.307ZM70.9644 27.8799C77.6363 10.5459 78.6576 7.09118 79.1341 4.12137C79.6107 7.09118 80.7681 10.4852 87.5762 27.8799H70.9644ZM140.956 43.638C128.157 31.88 123.595 27.5768 121.212 25.5767H124.957C132.99 25.5767 140.479 21.516 140.479 13.0914C140.479 5.57597 134.488 0.606083 124.412 0.606083H107.392V43.638H113.451C113.451 34.5468 113.451 28.3647 112.975 23.9403L133.467 43.638H140.956ZM134.42 13.5157C134.42 18.2431 130.744 21.6372 123.731 21.6372H113.451V5.51536H123.731C130.744 5.51536 134.42 8.84882 134.42 13.5157ZM175.5 0.666691L154.599 20.3038C154.872 15.4551 154.872 11.2126 154.872 0.606083H148.812V43.638H154.872C154.872 32.6073 154.872 27.8192 154.599 22.3039L175.16 43.638H182.581L160.999 21.3948L182.717 0.606083L175.5 0.666691ZM218.705 0.606083H189.634V43.638H218.705V38.7288H195.694V24.1221H214.212V19.3341H195.694V5.51536H218.705V0.606083ZM243.005 43.638V5.51536H256.553V0.606083H223.397V5.51536H236.877V43.638H243.005ZM269.958 43.638V0.606083H263.899V43.638H269.958ZM313.601 0.606083C313.601 25.6373 313.669 32.2437 314.01 35.3347L286.505 0.606083H280.786V43.638H286.777C286.777 18.8492 286.709 12.1823 286.369 9.15187L313.873 43.638H319.592V0.606083H313.601ZM347.27 25.3343H369.6C368.307 33.577 361.431 39.2742 351.967 39.2742C341.211 39.2742 333.858 32.0012 333.858 22.1827C333.858 12.2429 341.551 4.96989 352.512 4.96989C359.661 4.96989 365.175 8.12152 367.694 12.0611L372.119 8.667C368.647 3.6365 361.158 0 352.308 0C337.875 0 327.799 9.63673 327.799 22.1221C327.799 34.6074 337.807 44.2441 352.035 44.2441C365.788 44.2441 376 35.2741 376 20.5462H347.27V25.3343ZM41.7337 93.3939L24.2369 50.362H17.3607L0 93.3939H6.26346L10.6206 82.1208H30.7726C32.0662 85.4542 33.4959 89.1513 35.1979 93.3939H41.7337ZM12.3908 77.6357C19.0627 60.3017 20.0839 56.8471 20.5605 53.8773C21.037 56.8471 22.1944 60.2411 29.0025 77.6357H12.3908ZM63.4436 75.0902H85.7742C84.4806 83.3329 77.6044 89.0301 68.1412 89.0301C57.3844 89.0301 50.0316 81.7571 50.0316 71.9386C50.0316 61.9988 57.7248 54.7258 68.6858 54.7258C75.8343 54.7258 81.3489 57.8774 83.8679 61.817L88.2932 58.4229C84.821 53.3924 77.3321 49.7559 68.4816 49.7559C54.0484 49.7559 43.9724 59.3926 43.9724 71.8779C43.9724 84.3633 53.9803 94 68.2092 94C81.9616 94 92.1738 85.03 92.1738 70.3021H63.4436V75.0902ZM129.282 50.362H100.212V93.3939H129.282V88.4846H106.271V73.878H124.789V69.09H106.271V55.2712H129.282V50.362ZM170.126 50.362C170.126 75.3932 170.194 81.9995 170.534 85.0906L143.029 50.362H137.31V93.3939H143.302C143.302 68.6051 143.234 61.9382 142.893 58.9077L170.398 93.3939H176.117V50.362H170.126ZM208.424 94C215.3 94 219.998 92.0605 222.721 90.0605V84.6663C220.27 86.727 215.981 89.0907 209.173 89.0907C198.688 89.0907 190.382 81.5753 190.382 71.8779C190.382 62.1806 198.62 54.6652 209.173 54.6652C215.981 54.6652 220.202 57.0289 222.721 59.0896V53.6954C219.998 51.6954 215.3 49.7559 208.424 49.7559C194.876 49.7559 184.323 59.5138 184.323 71.8779C184.323 84.2421 194.876 94 208.424 94ZM259.44 50.362C250.453 63.817 247.73 68.302 246.504 71.2719C245.279 68.2414 242.624 63.7564 233.569 50.362H226.625L243.373 75.2114V93.3939H249.5V75.2114L266.248 50.362H259.44Z" stroke="black" stroke-width="0.5" mask="url(#path-1-inside-1_368_23156)"/>
</svg>
