<svg width="1224" height="529" viewBox="0 0 1224 529" fill="none" xmlns="http://www.w3.org/2000/svg">
<path d="M49.5706 199.879L50.248 199.143L50.2475 199.143L49.5706 199.879ZM126.701 270.912L126.024 271.648L126.311 271.912H126.701V270.912ZM160.541 270.912V271.912H163.083L161.222 270.18L160.541 270.912ZM98.6537 213.293L99.0083 212.358L97.9722 214.025L98.6537 213.293ZM227.392 111.773C227.392 47.8278 180.013 -0.501879 117.25 -0.501879V1.49812C178.872 1.49812 225.392 48.8957 225.392 111.773H227.392ZM117.25 -0.501879C54.1847 -0.501879 6.80428 47.8259 6.80428 111.773H8.80428C8.80428 48.8975 55.3219 1.49812 117.25 1.49812V-0.501879ZM6.80428 111.773C6.80428 146.25 22.2065 176.075 48.8937 200.615L50.2475 199.143C23.8884 174.905 8.80428 145.586 8.80428 111.773H6.80428ZM48.8932 200.615L126.024 271.648L127.379 270.177L50.248 199.143L48.8932 200.615ZM126.701 271.912H160.541V269.912H126.701V271.912ZM161.222 270.18L99.3351 212.561L97.9722 214.025L159.86 271.644L161.222 270.18ZM98.299 214.228C107.252 217.624 115.604 219.171 125.177 219.171V217.171C115.848 217.171 107.737 215.669 99.0083 212.358L98.299 214.228ZM125.177 219.171C183.394 219.171 227.392 172.947 227.392 111.773H225.392C225.392 171.936 182.198 217.171 125.177 217.171V219.171ZM35.9371 111.773C35.9371 64.1015 69.9932 26.8018 117.25 26.8018V24.8018C68.7803 24.8018 33.9371 63.1084 33.9371 111.773H35.9371ZM117.25 26.8018C164.2 26.8018 198.259 64.0989 198.259 111.773H200.259C200.259 63.1109 165.418 24.8018 117.25 24.8018V26.8018ZM198.259 111.773C198.259 159.448 164.2 196.745 117.25 196.745V198.745C165.418 198.745 200.259 160.436 200.259 111.773H198.259ZM117.25 196.745C70.9118 196.745 35.9371 157.925 35.9371 111.773H33.9371C33.9371 158.91 69.6909 198.745 117.25 198.745V196.745ZM431.803 3.54675H432.803V2.54675H431.803V3.54675ZM404.365 3.54675V2.54675H403.365V3.54675H404.365ZM288.212 3.54675H289.212V2.54675H288.212V3.54675ZM261.079 3.54675V2.54675H260.079V3.54675H261.079ZM346.441 224.049C372.252 224.049 393.875 216.209 409.043 200.731C424.21 185.255 432.803 162.265 432.803 132.199H430.803C430.803 161.887 422.324 184.322 407.614 199.331C392.906 214.34 371.847 222.049 346.441 222.049V224.049ZM432.803 132.199V3.54675H430.803V132.199H432.803ZM431.803 2.54675H404.365V4.54675H431.803V2.54675ZM403.365 3.54675V132.809H405.365V3.54675H403.365ZM403.365 132.809C403.365 155.197 397.392 171.305 387.37 181.812C377.352 192.313 363.16 197.355 346.441 197.355V199.355C363.562 199.355 378.332 194.183 388.817 183.192C399.296 172.206 405.365 155.541 405.365 132.809H403.365ZM346.441 197.355C329.722 197.355 315.452 192.313 305.358 181.809C295.26 171.301 289.212 155.194 289.212 132.809H287.212C287.212 155.544 293.359 172.21 303.916 183.195C314.476 194.183 329.32 199.355 346.441 199.355V197.355ZM289.212 132.809V3.54675H287.212V132.809H289.212ZM288.212 2.54675H261.079V4.54675H288.212V2.54675ZM260.079 3.54675V132.199H262.079V3.54675H260.079ZM260.079 132.199C260.079 162.265 268.673 185.255 283.84 200.731C299.008 216.209 320.63 224.049 346.441 224.049V222.049C321.035 222.049 299.977 214.34 285.268 199.331C270.558 184.322 262.079 161.887 262.079 132.199H260.079ZM637.279 220V221H638.704L638.219 219.66L637.279 220ZM558.929 3.54675L559.869 3.20639L559.63 2.54675H558.929V3.54675ZM528.138 3.54675V2.54675H527.434L527.196 3.20874L528.138 3.54675ZM450.397 220L449.456 219.662L448.976 221H450.397V220ZM478.445 220V221H479.158L479.39 220.325L478.445 220ZM497.956 163.295V162.295H497.243L497.01 162.97L497.956 163.295ZM588.196 163.295L589.141 162.969L588.908 162.295H588.196V163.295ZM608.012 220L607.07 220.336L607.307 221H608.012V220ZM505.882 140.735L504.936 140.412L504.484 141.735H505.882V140.735ZM542.771 20.924L543.761 20.7853L541.784 20.766L542.771 20.924ZM580.269 140.735V141.735H581.677L581.214 140.406L580.269 140.735ZM638.219 219.66L559.869 3.20639L557.988 3.88712L636.338 220.34L638.219 219.66ZM558.929 2.54675H528.138V4.54675H558.929V2.54675ZM527.196 3.20874L449.456 219.662L451.338 220.338L529.079 3.88477L527.196 3.20874ZM450.397 221H478.445V219H450.397V221ZM479.39 220.325L498.902 163.621L497.01 162.97L477.499 219.675L479.39 220.325ZM497.956 164.295H588.196V162.295H497.956V164.295ZM587.25 163.622C593.042 180.388 599.446 198.99 607.07 220.336L608.954 219.664C601.334 198.329 594.934 179.737 589.141 162.969L587.25 163.622ZM608.012 221H637.279V219H608.012V221ZM506.829 141.059C536.696 53.5912 541.303 36.4281 543.758 21.082L541.784 20.766C539.361 35.9062 534.823 52.8878 504.936 140.412L506.829 141.059ZM541.781 21.0626C543.932 36.4274 548.854 53.612 579.325 141.064L581.214 140.406C550.712 52.8671 545.878 35.9069 543.761 20.7853L541.781 21.0626ZM580.269 139.735H505.882V141.735H580.269V139.735ZM791.254 220V221H792.254V220H791.254ZM791.254 195.306H792.254V194.306H791.254V195.306ZM696.137 195.306H695.137V196.306H696.137V195.306ZM696.137 3.54675H697.137V2.54675H696.137V3.54675ZM669.004 3.54675V2.54675H668.004V3.54675H669.004ZM669.004 220H668.004V221H669.004V220ZM792.254 220V195.306H790.254V220H792.254ZM791.254 194.306H696.137V196.306H791.254V194.306ZM697.137 195.306V3.54675H695.137V195.306H697.137ZM696.137 2.54675H669.004V4.54675H696.137V2.54675ZM668.004 3.54675V220H670.004V3.54675H668.004ZM669.004 221H791.254V219H669.004V221ZM851.546 220V221H852.546V220H851.546ZM851.546 3.54675H852.546V2.54675H851.546V3.54675ZM824.413 3.54675V2.54675H823.413V3.54675H824.413ZM824.413 220H823.413V221H824.413V220ZM852.546 220V3.54675H850.546V220H852.546ZM851.546 2.54675H824.413V4.54675H851.546V2.54675ZM823.413 3.54675V220H825.413V3.54675H823.413ZM824.413 221H851.546V219H824.413V221ZM972.896 220V221H973.896V220H972.896ZM972.896 28.2407V27.2407H971.896V28.2407H972.896ZM1033.56 28.2407V29.2407H1034.56V28.2407H1033.56ZM1033.56 3.54675H1034.56V2.54675H1033.56V3.54675ZM885.095 3.54675V2.54675H884.095V3.54675H885.095ZM885.095 28.2407H884.095V29.2407H885.095V28.2407ZM945.458 28.2407H946.458V27.2407H945.458V28.2407ZM945.458 220H944.458V221H945.458V220ZM973.896 220V28.2407H971.896V220H973.896ZM972.896 29.2407H1033.56V27.2407H972.896V29.2407ZM1034.56 28.2407V3.54675H1032.56V28.2407H1034.56ZM1033.56 2.54675H885.095V4.54675H1033.56V2.54675ZM884.095 3.54675V28.2407H886.095V3.54675H884.095ZM885.095 29.2407H945.458V27.2407H885.095V29.2407ZM944.458 28.2407V220H946.458V28.2407H944.458ZM945.458 221H972.896V219H945.458V221ZM1192.67 3.54675V2.54675H1192.1L1191.81 3.03568L1192.67 3.54675ZM1134.75 108.725L1133.81 109.063L1134.74 111.651L1135.69 109.07L1134.75 108.725ZM1076.82 3.54675L1077.68 3.03112L1077.39 2.54675H1076.82V3.54675ZM1045.73 3.54675V2.54675H1043.96L1044.87 4.06125L1045.73 3.54675ZM1120.72 128.541H1121.72V128.264L1121.58 128.026L1120.72 128.541ZM1120.72 220H1119.72V221H1120.72V220ZM1148.16 220V221H1149.16V220H1148.16ZM1148.16 128.541L1147.3 128.026L1147.16 128.264V128.541H1148.16ZM1223.16 3.54675L1224.02 4.06125L1224.92 2.54675H1223.16V3.54675ZM1191.81 3.03568C1151.59 70.6811 1139.34 93.334 1133.81 108.38L1135.69 109.07C1141.13 94.2389 1153.27 71.7719 1193.53 4.05783L1191.81 3.03568ZM1135.69 108.386C1130.16 93.0305 1118.21 70.3786 1077.68 3.03112L1075.97 4.06239C1116.53 71.4647 1128.36 93.9326 1133.81 109.063L1135.69 108.386ZM1076.82 2.54675H1045.73V4.54675H1076.82V2.54675ZM1044.87 4.06125L1119.87 129.055L1121.58 128.026L1046.58 3.03226L1044.87 4.06125ZM1119.72 128.541V220H1121.72V128.541H1119.72ZM1120.72 221H1148.16V219H1120.72V221ZM1149.16 220V128.541H1147.16V220H1149.16ZM1149.02 129.055L1224.02 4.06125L1222.3 3.03226L1147.3 128.026L1149.02 129.055ZM1223.16 2.54675H1192.67V4.54675H1223.16V2.54675ZM250.171 308.547V307.547H249.409L249.207 308.281L250.171 308.547ZM202.307 495.428L201.321 495.593L203.295 495.585L202.307 495.428ZM154.444 308.547L155.408 308.282L155.207 307.547H154.444V308.547ZM125.482 308.547V307.547H124.716L124.516 308.286L125.482 308.547ZM78.2278 497.867L77.2411 498.029L79.2184 498.004L78.2278 497.867ZM29.4496 308.547L30.4141 308.283L30.2125 307.547H29.4496V308.547ZM0.792411 308.547V307.547H-0.526407L-0.170483 308.817L0.792411 308.547ZM61.4603 525L60.4974 525.27L60.702 526H61.4603V525ZM91.9467 525V526H92.7046L92.9095 525.27L91.9467 525ZM139.505 340.557L140.496 340.42L138.515 340.422L139.505 340.557ZM185.845 525L184.879 525.261L185.079 526H185.845V525ZM216.636 525V526H217.392L217.598 525.272L216.636 525ZM277.914 308.547L278.876 308.819L279.236 307.547H277.914V308.547ZM249.207 308.281C214.155 435.381 205.294 470.203 201.32 495.272L203.295 495.585C207.247 470.656 216.068 435.969 251.135 308.813L249.207 308.281ZM203.294 495.264C199.32 471.421 190.156 435.081 155.408 308.282L153.479 308.811C188.241 435.659 197.368 471.877 201.321 495.593L203.294 495.264ZM154.444 307.547H125.482V309.547H154.444V307.547ZM124.516 308.286C89.4675 438.119 80.9066 471.127 77.2372 497.73L79.2184 498.004C82.8657 471.561 91.3772 438.718 126.447 308.807L124.516 308.286ZM79.2145 497.705C75.2404 473.555 66.0744 438.428 30.4141 308.283L28.4851 308.811C64.1629 439.02 73.2887 474.011 77.2411 498.029L79.2145 497.705ZM29.4496 307.547H0.792411V309.547H29.4496V307.547ZM-0.170483 308.817L60.4974 525.27L62.4232 524.73L1.7553 308.277L-0.170483 308.817ZM61.4603 526H91.9467V524H61.4603V526ZM92.9095 525.27C129.178 396.044 137.436 363.034 140.496 340.693L138.515 340.422C135.478 362.591 127.273 395.432 90.9839 524.73L92.9095 525.27ZM138.515 340.695C141.575 362.725 149.83 395.732 184.879 525.261L186.81 524.739C151.74 395.134 143.533 362.29 140.496 340.42L138.515 340.695ZM185.845 526H216.636V524H185.845V526ZM217.598 525.272L278.876 308.819L276.951 308.274L215.674 524.728L217.598 525.272ZM277.914 307.547H250.171V309.547H277.914V307.547ZM401.274 529.049C464.036 529.049 511.415 480.719 511.415 416.773H509.415C509.415 479.651 462.896 527.049 401.274 527.049V529.049ZM511.415 416.773C511.415 352.828 464.036 304.498 401.274 304.498V306.498C462.896 306.498 509.415 353.896 509.415 416.773H511.415ZM401.274 304.498C338.208 304.498 290.828 352.826 290.828 416.773H292.828C292.828 353.898 339.345 306.498 401.274 306.498V304.498ZM290.828 416.773C290.828 480.721 338.208 529.049 401.274 529.049V527.049C339.345 527.049 292.828 479.649 292.828 416.773H290.828ZM401.274 501.745C354.626 501.745 319.961 463.835 319.961 416.773H317.961C317.961 464.829 353.414 503.745 401.274 503.745V501.745ZM319.961 416.773C319.961 369.711 354.626 331.802 401.274 331.802V329.802C353.414 329.802 317.961 368.718 317.961 416.773H319.961ZM401.274 331.802C447.614 331.802 482.282 369.709 482.282 416.773H484.282C484.282 368.72 448.831 329.802 401.274 329.802V331.802ZM482.282 416.773C482.282 463.838 447.614 501.745 401.274 501.745V503.745C448.831 503.745 484.282 464.826 484.282 416.773H482.282ZM697.535 525V526H699.896L698.253 524.304L697.535 525ZM609.124 434.151V433.151H606.606L608.438 434.878L609.124 434.151ZM547.237 308.547V307.547H546.237V308.547H547.237ZM547.237 525H546.237V526H547.237V525ZM574.37 525V526H575.37V525H574.37ZM572.236 425.919L572.969 425.24L570.958 423.068L571.24 426.015L572.236 425.919ZM664 525L663.266 525.68L663.563 526H664V525ZM574.37 414.334H573.37V415.334H574.37V414.334ZM574.37 333.241V332.241H573.37V333.241H574.37ZM698.253 524.304C640.961 465.184 620.502 443.504 609.81 433.423L608.438 434.878C619.086 444.918 639.48 466.529 696.816 525.696L698.253 524.304ZM609.124 435.151H625.892V433.151H609.124V435.151ZM625.892 435.151C644.055 435.151 661.669 429.996 674.765 419.419C687.887 408.82 696.401 392.83 696.401 371.349H694.401C694.401 392.243 686.147 407.654 673.508 417.863C660.842 428.093 643.702 433.151 625.892 433.151V435.151ZM696.401 371.349C696.401 352.198 689.597 336.212 677.011 325.024C664.437 313.847 646.192 307.547 623.453 307.547V309.547C645.833 309.547 663.562 315.745 675.682 326.519C687.79 337.282 694.401 352.697 694.401 371.349H696.401ZM623.453 307.547H547.237V309.547H623.453V307.547ZM546.237 308.547V525H548.237V308.547H546.237ZM547.237 526H574.37V524H547.237V526ZM575.37 525C575.37 479.294 575.371 448.139 573.231 425.824L571.24 426.015C573.368 448.21 573.37 479.247 573.37 525H575.37ZM571.502 426.599L663.266 525.68L664.733 524.32L572.969 425.24L571.502 426.599ZM664 526H697.535V524H664V526ZM667.268 373.483C667.268 385.132 663.242 395.059 655.442 402.083C647.632 409.116 635.929 413.334 620.404 413.334V415.334C636.281 415.334 648.509 411.017 656.78 403.569C665.062 396.112 669.268 385.613 669.268 373.483H667.268ZM620.404 413.334H574.37V415.334H620.404V413.334ZM575.37 414.334V333.241H573.37V414.334H575.37ZM574.37 334.241H620.404V332.241H574.37V334.241ZM620.404 334.241C635.933 334.241 647.638 338.386 655.448 345.307C663.246 352.218 667.268 361.99 667.268 373.483H669.268C669.268 361.501 665.058 351.152 656.774 343.81C648.503 336.48 636.276 332.241 620.404 332.241V334.241ZM852.222 308.852L852.213 307.852L851.788 307.856L851.496 308.164L852.222 308.852ZM758.629 407.627L757.63 407.578L757.495 410.278L759.355 408.315L758.629 407.627ZM759.848 308.547H760.848V307.547H759.848V308.547ZM732.715 308.547V307.547H731.715V308.547H732.715ZM732.715 525H731.715V526H732.715V525ZM759.848 525V526H760.848V525H759.848ZM758.629 417.688L759.388 417.037L757.503 414.84L757.63 417.732L758.629 417.688ZM850.698 525L849.939 525.651L850.238 526H850.698V525ZM883.928 525V526H886.113L884.685 524.346L883.928 525ZM787.286 413.115L786.554 412.434L785.943 413.09L786.529 413.769L787.286 413.115ZM884.538 308.547L885.27 309.228L886.854 307.525L884.528 307.547L884.538 308.547ZM851.496 308.164L757.903 406.94L759.355 408.315L852.948 309.539L851.496 308.164ZM759.628 407.677C760.849 383.258 760.848 361.889 760.848 308.547H758.848C758.848 361.907 758.848 383.219 757.63 407.578L759.628 407.677ZM759.848 307.547H732.715V309.547H759.848V307.547ZM731.715 308.547V525H733.715V308.547H731.715ZM732.715 526H759.848V524H732.715V526ZM760.848 525C760.848 469.522 760.848 445.413 759.628 417.644L757.63 417.732C758.848 445.448 758.848 469.508 758.848 525H760.848ZM757.87 418.339L849.939 525.651L851.457 524.349L759.388 417.037L757.87 418.339ZM850.698 526H883.928V524H850.698V526ZM884.685 524.346L788.043 412.461L786.529 413.769L883.171 525.654L884.685 524.346ZM788.018 413.796L885.27 309.228L883.805 307.866L786.554 412.434L788.018 413.796ZM884.528 307.547L852.213 307.852L852.231 309.852L884.547 309.547L884.528 307.547Z" fill="black"/>
</svg>
